<svg width="95" height="81" viewBox="0 0 95 81" fill="none" xmlns="http://www.w3.org/2000/svg">
<g clip-path="url(#clip0_63_72)">
<path d="M69.0898 0.0776367H94.9865L95.0002 0.127864C94.6942 0.207771 94.386 0.287677 94.0801 0.369867C92.4637 0.801364 90.9934 1.48856 89.8907 2.80132C88.7104 4.20539 88.32 5.87887 88.32 7.65736C88.32 13.5339 88.3428 19.4082 88.3565 25.2848C88.3702 30.755 88.3976 36.2229 88.393 41.6931C88.3908 45.8574 88.1967 50.0125 87.5985 54.138C87.0049 58.2292 86.0164 62.2086 84.1899 65.9482C81.6192 71.2152 77.649 75.101 72.4939 77.8155C71.793 78.1854 71.0715 78.5164 70.3569 78.8611C70.277 78.8999 70.188 78.9228 70.1583 78.9844C70.9094 78.1785 71.7268 77.4251 72.3957 76.5553C73.761 74.7813 74.4048 72.69 74.7975 70.5143C75.1719 68.4459 75.2929 66.3569 75.2929 64.2587C75.2929 45.4099 75.2929 26.561 75.2929 7.71216C75.2929 6.05238 75.0029 4.46566 74.0509 3.06615C72.9528 1.45203 71.3135 0.684928 69.4871 0.232884C69.3958 0.210054 69.3022 0.189506 69.2108 0.16211C69.1857 0.15526 69.1652 0.13243 69.0921 0.0799198L69.0898 0.0776367Z" fill="#3F3F3F"/>
<path d="M29.9468 61.2358C29.5404 60.2541 29.1545 59.3249 28.7687 58.3934C25.5359 50.5602 22.3031 42.7271 19.0703 34.8917C15.8809 27.159 12.6892 19.4263 9.49977 11.6936C8.82627 10.0635 8.15734 8.4334 7.47927 6.80559C6.08889 3.47233 3.80128 1.11394 0.230588 0.159629C0.146115 0.136798 0.0684915 0.0979864 0 0.0112305H25.2049C24.8898 0.0979864 24.6866 0.15278 24.4834 0.207573C23.5017 0.472407 22.5451 0.798883 21.7346 1.44042C20.2438 2.62304 19.8945 4.21889 20.3671 5.94488C20.778 7.44028 21.3876 8.88545 21.9675 10.3306C26.0428 20.4765 30.1317 30.6155 34.2184 40.7545C34.8211 42.2499 35.4329 43.7431 36.022 45.243C36.0927 45.4234 36.1133 45.6791 36.0448 45.8549C34.0814 50.8548 32.102 55.8478 30.1271 60.8408C30.0815 60.955 30.0267 61.0646 29.949 61.2358H29.9468Z" fill="#3F3F3F"/>
<path d="M58.85 80.4408C55.7313 80.4203 53.2451 77.9089 53.2702 74.8017C53.2953 71.7675 55.8386 69.3133 58.9367 69.3361C61.9116 69.3566 64.4115 71.868 64.4024 74.8268C64.3932 77.9546 61.9138 80.4614 58.85 80.4408Z" fill="#3F3F3F"/>
<path d="M51.9785 8.91988C52.1452 8.11168 52.3575 7.37425 52.4397 6.62085C52.7183 4.09351 51.7343 2.2625 49.4421 1.13696C48.5905 0.719161 47.6544 0.477158 46.7549 0.15753C46.6179 0.109586 46.4787 0.0753407 46.2275 0H63.0331C57.9624 1.22828 54.5333 4.49761 51.9785 8.91988Z" fill="#3F3F3F"/>
</g>
<defs>
<clipPath id="clip0_63_72">
<rect width="95" height="80.441" fill="white"/>
</clipPath>
</defs>
</svg>
