<svg width="336" height="513" viewBox="0 0 336 513" fill="none" xmlns="http://www.w3.org/2000/svg">
<g clip-path="url(#clip0_63_47)">
<path d="M363.755 237.272C361.806 234.67 360.496 238.911 359.711 239.809C357.876 242.801 354.788 246.285 352.883 248.574C343.195 259.836 328.031 272.012 318.246 276.42C311.229 280.01 305.245 282.766 299.161 286.456C298.757 286.482 298.362 286.574 297.998 286.867C296.386 287.921 294.817 289.038 293.22 290.193C295.841 286.54 298.19 282.656 300.012 279.121C304.96 270.058 307.876 260.139 312.204 250.793C318.218 238.137 329.051 226.569 336.454 215.033C336.269 215.162 336.842 214.669 337.074 214.397C337.491 213.995 337.892 213.493 337.87 212.885C337.938 212.195 337.373 211.598 336.702 211.426C336.664 211.397 336.554 211.346 336.25 211.357C336.25 211.357 336.216 211.362 336.183 211.366C334.031 211.991 333.887 212.625 332.256 213.547C323.84 218.942 313.457 225.513 306.88 235.056C303.892 239.443 301.4 244.199 299.914 249.315C297.819 257.208 297.272 265.45 295.178 273.343C292.401 282.833 287.295 290.595 283.221 296.605C283.164 296.681 283.103 296.724 283.079 296.796C280.617 299.915 279.384 300.54 277.764 302.922C277.713 303.031 277.799 303.155 277.78 303.259C272.556 308.386 267.637 313.977 263.078 319.923C264.549 314.707 265.319 309.118 265.052 303.411C264.617 291.983 262.735 281.347 264.908 270.314C267.487 257.656 270.585 245.058 273.307 232.448C273.349 232.272 273.344 232.238 273.315 232.277C273.306 232.21 273.367 232.167 273.357 232.1C273.515 231.329 273.254 230.484 272.491 230.155C271.256 229.623 270.354 230.879 269.588 231.673C268.986 232.204 266.134 236.129 264.668 237.944C257.372 247.22 250.549 256.936 251.91 269.791C255.006 286.096 258.335 290.669 260.256 305.006C260.768 310.302 259.773 315.516 258.852 321.467C258.543 322.363 258.262 323.221 258.028 323.936C257.085 326.523 256.438 328.353 255.678 330.336C244.064 348.107 235.672 368.12 231.951 387.985C230.531 378.402 229.145 368.815 228.058 359.183C224.683 331.359 223.153 307.953 229.112 281.16C232.836 265.443 239.036 249.461 245.673 233.21C249.829 229.126 253.645 224.82 257.323 220.501C264.471 214.579 272.308 209.644 277.118 206.993C286.125 202.836 291.487 202.994 300.134 200.08C311.837 196.68 320.431 187.212 326.061 176.789C328.921 171.537 329.934 167.816 331.55 161.967C331.891 160.828 331.707 161.195 331.961 159.695C332.213 158.638 331.378 157.368 330.225 157.845C329.366 158.244 329.148 159.296 328.714 160.041C328.667 160.183 327.659 161.183 327.129 161.737C322.313 166.871 314.93 173.032 307.802 177.25C301.144 181.195 291.013 185.11 283.928 189.39C273.811 195.004 267.813 205.005 260.278 213.364C257.049 217.039 253.598 220.373 250.124 223.778C258.492 201.082 266.772 177.787 280.66 159.986C283.935 155.931 287.673 152.01 291.015 148.863C295.585 145.057 300.161 141.285 304.774 137.541C304.864 137.46 304.954 137.379 305.078 137.292C310.611 133.786 316.091 130.152 320.341 125.102C326.235 117.836 329.784 109.66 333.425 101.877C334.023 100.633 335.048 98.3727 335.188 97.9439C335.552 97.414 336.062 95.8082 334.67 95.1305C334.121 94.8717 333.456 94.9703 332.91 95.1872C330.381 96.48 328.034 97.8479 326.564 98.7118C318.236 103.55 309.953 108.926 303.947 116.582C298.12 123.838 294.545 132.529 289.806 140.473C288.671 142.682 287.042 144.997 285.408 147.28C279.701 152.138 274.441 157.949 270.225 164.831C273.531 151.114 275.375 137.171 274.73 122.951C274.554 119.237 274.178 115.553 273.702 111.883C277.725 97.0394 269.711 73.4727 262.867 57.1113C258.514 46.0933 253.838 35.191 250.031 23.9561C248.959 21.7687 246.806 8.38455 243.485 13.739C242.397 19.4767 243.456 25.4744 243.666 31.2577C244.416 41.8236 245.247 52.4794 247.798 62.8124C251.15 76.2569 257.569 88.6009 263.461 101.057C264.476 103.083 266.221 106.599 267.56 110.821C268.201 112.392 267.921 112.569 268.237 112.863C268.449 113.375 268.538 113.974 268.783 114.482C269.325 123.65 269.726 132.092 269.17 140.505C267.224 135.863 264.31 131.568 260.999 127.808C260.917 127.718 260.902 127.618 260.821 127.529C260.773 127.434 260.697 127.377 260.654 127.315C260.639 127.216 260.691 127.106 260.676 127.006C257.107 112.098 246.326 104.514 237.49 93.9902C229.332 83.91 222.248 72.8206 216.805 61.5561C216.276 60.5123 216.121 59.9233 215.589 59.0841C214.698 57.89 213.057 58.9831 213.142 59.7865C214.008 78.0199 220.874 96.5883 232.805 110.564C239.679 118.862 248.338 125.434 258.174 129.859C258.47 130.019 258.174 129.859 258.06 129.774C258.256 129.949 258.508 130.047 258.784 130.075C260.479 132.102 262.206 134.124 263.564 136.405C265.583 139.472 267.651 144.708 268.227 148.363C268.241 148.463 268.246 148.496 268.261 148.596C265.093 168.753 257.987 187.114 249.928 206.159C249.351 202.266 248.511 197.971 248.499 193.994C248.053 184.097 249.704 175.046 248.749 164.238C248.306 158.727 246.884 153.26 244.19 148.388C239.342 139.994 231.225 126.745 229.669 121.297C230.105 119.193 226.825 117.706 225.966 119.942C225.267 122.8 226.272 125.677 226.354 128.759C228.181 145.218 233.819 156.42 239.057 171.115C242.689 182.546 245.165 195.814 245.113 207.859C245.357 209.965 244.619 215.311 243.898 220.314C236.172 236.556 228.914 253.205 224.028 270.488C223.116 264.333 221.61 258.299 219.387 252.474C219.367 252.341 219.319 252.246 219.309 252.18C218.746 249.985 218.316 247.77 218.114 245.488C217.628 239.916 218.599 234.535 220.257 228.509C221.803 221.276 228.176 210.13 226.729 200.824C225.979 194.611 223.869 188.633 221.038 183.068C219.83 181.342 212.112 163.444 210.153 169.039C213.548 179.791 215.531 192.486 214.785 203.512C214.299 212.629 211.882 221.556 211.81 230.713C211.722 231.032 211.845 230.946 212.02 230.75C211.695 233.144 211.701 235.252 211.915 237.158C209.232 232.591 206.237 228.206 202.971 224.066C200.383 219.451 197.876 214.926 195.446 208.621C195.011 207.292 194.584 205.791 194.186 204.252C192.354 193.948 194.325 182.469 194.999 173.937C194.86 167.259 193.644 160.434 190.963 154.269C188.652 149.001 183.89 143.484 180.901 140.288C172.862 132.163 161.623 126.075 152.996 120.859C150.691 119.534 149.106 118.477 146.893 117.309C146.092 116.952 144.9 116.482 144.122 117.652C143.891 118.162 144.108 118.708 144.377 119.144C145.773 121.453 147.236 123.753 148.727 126.014C160.394 143.021 176.603 157.179 183.932 176.121C188.637 187.222 188.97 199.108 192.306 211.297C192.509 211.981 192.803 212.583 193.034 213.229C189.836 210.235 186.43 207.441 182.797 204.953C179.1 201.115 176.139 197.881 172.447 193.158C168.263 188.099 164.266 182.469 158.168 179.632C149.39 175.696 138.805 177.468 130.984 182.742C122.095 188.615 114.992 196.672 108.318 204.87C107.44 206.054 106.622 206.957 106.034 208.268C105.879 208.598 105.838 209.012 106.087 209.315C107.271 210.193 108.773 208.169 109.932 207.725C112.247 206.6 114.747 205.345 117.13 204.21C124.916 200.54 133.025 198.353 140.441 197.458C152.761 195.462 163.345 198.281 174.263 204.041C191.577 214.635 206.235 234.395 213.606 253.161C217.948 262.956 219.718 273.983 220.538 285.253C219.161 292.257 218.242 299.364 217.89 306.625C217.232 317.331 217.321 328.029 217.886 338.724C215.524 329.213 213.535 319.001 212.093 308.81C209.112 292.59 207.363 279.18 198.571 264.365C190.903 251.628 180.401 240.875 172.918 228.009C171.806 226.236 171.383 224.53 170.023 222.929C167.864 221.209 166.296 224.162 167.267 226.126C171.074 240.115 173.318 245.393 175.787 259.989C176.853 266.495 177.734 273.131 180.244 279.288C182.857 285.905 187.168 291.591 191.402 297.22C205.843 314.36 213.463 337.101 218.635 357.553C219.101 359.32 219.505 361.13 219.843 362.95C220.97 373.766 222.367 384.576 223.755 395.32C225.272 407.166 226.59 419.042 228.036 430.865C224.552 424.104 220.57 417.655 216.226 411.975C212.31 407.114 207.938 402.628 203.284 398.523C196.612 390.671 192.003 381.595 188.343 371.12C184.875 360.107 183.054 348.51 177.583 338.201C168.331 319.136 149.346 306.206 131.044 295.827C130.151 295.075 128.662 296.044 129.139 297.197C130.958 299.376 133.407 300.985 135.292 303.154C144.259 312.264 148.873 324.128 155.687 336.379C164.168 352.77 177.299 365.888 187.448 381.148C189.595 384.162 191.382 387.501 193.405 390.602C187.494 386.275 181.266 382.336 174.83 378.835C167.112 374.708 159.363 370.144 151.067 367.394C151.067 367.394 151.067 367.394 151.034 367.399C144.875 364.844 137.53 362.09 133.021 359.425C118.281 349.674 104.146 330.007 85.528 322.769C76.5185 319.105 66.9741 316.881 57.447 315.232C52.1764 314.313 46.902 313.599 41.5722 313.198C39.9184 312.593 38.5174 314.841 40.2254 315.812C41.5144 316.709 44.2908 317.318 46.6791 318.29C50.6065 319.782 55.0047 322.157 57.4152 323.738C69.969 332.045 80.1506 343.389 92.506 351.963C100.137 357.565 109.001 361.624 118.821 364.794C128.774 367.705 139.205 368.574 149.265 371.062C149.793 371.188 150.36 371.342 150.932 371.529C163.529 378.061 177.569 384.005 189.057 393.15C209.53 408.546 222.355 428.782 231.054 453.301C231.596 456.961 232.144 460.655 232.719 464.31C233.672 470.051 234.402 475.893 235.848 481.527C235.916 481.755 235.989 482.017 236.057 482.245C236.111 482.611 236.337 483.903 236.777 484.348C237.921 486.797 241.095 487.789 243.568 486.81C249.251 483.86 246.534 479.06 245.84 472.77C243.737 460.875 241.701 448.969 239.865 437.035C238.759 430.262 237.616 423.461 236.51 416.688C235.77 404.352 236.921 392.383 239.723 380.543C240.848 377.35 242.12 373.999 243.727 371.075C247.139 364.958 252.241 359 258.879 354.922C264.546 351.634 271.776 350.631 280.836 350.275C291.819 350.042 303.436 349.272 313.197 343.78C317.483 341.036 319.939 338.564 322.709 335.23C327.857 328.21 330.705 323.334 334.397 315.204C335.276 314.02 334.348 311.199 332.144 312.852C329.246 316.239 325.738 318.493 321.846 321.144C313.808 326.79 306.11 331.059 296.617 334.233C289.59 336.838 283.272 337.571 275.737 340.183C265.149 343.996 255.415 350.131 247.756 358.338C252.789 342.734 261.9 328.496 272.615 315.212C273.543 314.36 274.346 313.357 275.236 312.477C281.453 306.013 287.225 299.99 294.828 294.851C300.137 291.208 308.669 288.21 314.433 286.948C321.209 285.637 328.182 285.42 334.608 282.666C346.701 278.222 354.199 266.638 357.848 254.774C359.657 249.542 361.285 244.234 363.451 239.119C363.677 238.575 363.964 237.989 363.737 237.376L363.755 237.272ZM301.141 258.28C302.968 246.517 309.207 236.071 318.746 228.163C322.406 224.867 326.88 221.79 330.871 218.886C329.944 219.976 329.017 221.065 328.28 222.058C323.181 228.492 318.25 235.14 313.991 242.197C307.806 253.008 303.353 264.719 297.321 275.644C298.889 269.937 300.024 264.056 301.145 258.314L301.141 258.28ZM285.027 191.982C291.131 187.745 298.953 185.226 306.115 181.241C314.363 176.55 321.86 171.155 327.694 164.17C322.038 179.697 313.996 192.892 296.196 196.685C287.883 198.869 277.165 202.26 268.939 207.559C268.176 208.148 267.537 208.651 266.902 209.187C272.42 202.827 278.164 196.841 284.998 192.02L285.027 191.982ZM300.843 127.073C303.44 122.336 308.008 116.219 312.185 112.743C318.255 107.355 325.351 103.38 332.198 99.1011C330.779 102.61 327.678 108.068 325.519 111.856C321.72 118.573 316.855 125.211 310.219 129.764C306.015 132.835 301.488 135.784 297.246 138.827C295.558 139.825 293.908 140.852 292.278 142.011C295.288 137.315 297.87 132.478 300.881 127.101L300.843 127.073ZM256.306 77.0911C247.842 59.4395 246.767 40.2511 245.841 20.4625C251.248 40.1992 263.268 63.9544 267.837 82.6251C269.327 89.239 270.523 95.9304 270.643 102.713C270.719 103.45 270.662 104.445 270.615 105.506C267.523 96.3409 260.357 85.8417 256.273 77.096L256.306 77.0911ZM251.904 122.423C243.73 117.514 235.384 108.924 229.489 99.4262C223.355 89.9301 218.853 75.8398 216.614 65.0867C223.464 76.8909 230.015 88.9773 238.956 99.5196C244.497 105.941 250.639 112.512 253.433 119.204C254.509 121.187 254.993 122.85 255.382 124.322C254.204 123.715 253.025 123.107 251.904 122.423ZM238.431 158.627C236.307 152.787 233.145 149.345 231.147 142.058C230.054 138.582 229.217 130.409 229.038 125.301C229.947 127.071 230.919 129.273 231.942 131.128C237.589 143.076 246.682 152.814 247.026 165.922C247.237 172.623 246.19 179.783 245.595 187.012C244.055 177.311 242.119 168.145 238.426 158.593L238.431 158.627ZM163.151 194.909C162.942 194.872 162.694 194.807 162.447 194.741C159.259 193.65 155.958 192.948 152.552 192.909C143.047 192.787 135.597 195.285 127.069 198.317C120.236 200.622 114.379 204.006 108.241 207.329C112.091 203.019 115.524 200.028 119.935 195.838C124.47 191.562 131.526 184.566 138.739 182.069C145.246 180.085 153.066 180.082 158.33 183.484C163.939 187.142 168.543 194.348 173.563 199.317C170.348 197.583 166.8 195.898 163.123 194.947L163.151 194.909ZM190.318 188.469C189.566 185.691 188.748 182.922 187.706 180.254C180.053 158.436 162.019 142.746 149.576 123.712C148.995 122.778 148.305 121.792 147.682 120.796C148.889 121.604 150.24 122.457 151.448 123.265C160.344 128.917 172.363 135.909 178.61 142.498C185.541 150.72 188.527 156.874 190.195 166.76C190.983 172.764 191.067 177.92 191.039 180.712C190.67 183.045 190.418 185.7 190.318 188.469ZM215.084 235.362C214.625 234.104 214.765 231.839 214.259 230.486C214.364 230.505 214.411 230.362 214.308 229.901C213.873 222.145 216.011 213.395 216.531 204.511C217.137 194.833 216.058 184.111 213.865 174.814C216.734 179.489 218.999 184.22 220.963 189.675C222.338 193.45 223.608 199.722 223.358 202.854C222.95 209.511 221.125 213.487 218.842 219.878C216.916 225.468 215.709 231.325 215.392 236.983C215.318 236.484 215.167 235.928 215.05 235.367L215.084 235.362ZM199.943 303.231C195.198 295.298 188.107 287.372 184.755 280.354C180.207 271.235 179.962 262.464 178.371 251.955C177.43 244.92 175.368 238.119 172.989 231.467C176.958 237.373 180.748 243.442 184.963 249.176C192.229 259.66 197 266.842 201.688 278.287C205.634 288.855 207.183 298.622 209.055 310.11C209.971 316.061 210.92 322.007 212.031 327.895C208.718 319.307 204.864 310.969 199.972 303.193L199.943 303.231ZM183.787 370.435C178.685 363.54 172.763 357.311 167.936 350.206C157.9 336.629 153.393 323.424 143.638 308.99C142.181 306.962 140.506 305.068 138.78 303.283C141.061 304.679 143.385 306.137 146.025 307.888C159.343 316.762 170.689 327.934 176.637 342.15C180.738 351.233 182.273 361.138 185.139 370.609C185.574 371.938 186.004 373.235 186.462 374.493C185.585 373.161 184.702 371.796 183.72 370.445L183.787 370.435ZM134.899 364.758C122.236 362.826 109.056 358.556 99.0016 352.429C87.8761 345.271 78.5891 335.834 68.4654 327.405C63.7493 323.343 57.4927 319.442 51.5036 316.657C69.5226 319.394 86.7406 323.609 100.77 334.758C111.157 342.671 118.715 352.602 128.823 360.694C131 362.309 132.995 363.612 134.966 364.748C134.966 364.748 134.966 364.748 134.933 364.753L134.899 364.758ZM270.437 345.491C278.996 341.298 288.478 339.656 297.322 336.237C309.379 332.24 319.606 324.842 329.862 317.644C328.481 320.943 327.299 324.213 325.494 326.486C318.426 336.612 309.231 342.259 298.184 344.576C289.785 345.956 282.791 345.565 273.555 346.797C270.712 347.116 267.832 347.645 265.053 348.397C266.964 347.298 268.819 346.275 270.47 345.486L270.437 345.491ZM256.278 278.393C252.282 267.254 256.83 254.577 263.69 244.652C265.518 242.069 267.999 239.083 269.998 236.508C268.517 247.167 264.096 262.307 262.6 273.784C261.677 280.177 262.091 287.562 262.369 294.254C260.852 288.834 258.556 283.666 256.278 278.393ZM355.287 252.638C350.103 265.613 343.465 276.117 329.859 280.445C325.173 282.092 318.354 282.66 311.106 284.686C316.111 282.21 321.33 279.567 325.948 276.537C339.224 268.381 348.516 255.817 358.521 244.168C357.441 246.98 356.4 249.821 355.254 252.643L355.287 252.638Z" fill="#252525" fill-opacity="0.13"/>
<path d="M222.886 348.149C222.352 346.154 222.35 342.006 221.339 340.694C220.494 340.037 219.18 340.81 219.371 341.87C219.63 349.584 221.018 359.409 222.652 368.144C222.875 368.961 222.79 369.994 223.521 370.565C224.137 371.052 225.135 370.904 225.617 370.255C226.151 369.496 225.775 368.565 225.751 367.719C224.918 361.177 223.814 354.643 222.914 348.111L222.886 348.149Z" fill="#252525" fill-opacity="0.13"/>
<path d="M263.971 72.8265C259.321 58.6561 252.283 45.3497 248.25 30.9859C250.789 43.5308 255.95 55.4152 259.762 67.6015C261.497 72.8869 263.108 78.9388 264.62 85.2433C258.842 71.7163 253.371 57.9736 250.045 44.0152C253.704 63.4327 259.502 82.6013 267.583 100.65C267.704 101.006 267.981 101.271 268.244 101.436C268.532 102.923 270.745 103.173 271.275 101.701C270.069 91.9507 266.826 82.2302 263.899 72.8031L263.971 72.8265Z" fill="#252525" fill-opacity="0.13"/>
<path d="M256.329 122.923C256.762 121.941 255.972 120.97 255.406 120.136C253.575 117.415 251.554 114.79 249.476 112.241C239.482 100.325 227.681 89.5266 221.475 75.1788C227.406 91.5735 239.834 104.081 249.92 117.99C239.901 109.58 231.792 98.9143 225.18 87.1088C230.078 97.6722 236.072 107.835 243.914 116.466C246.747 119.752 250.048 122.528 253.548 125.035C254.149 125.422 254.747 126.014 255.507 125.867C256.91 125.693 257.376 123.788 256.301 122.961L256.329 122.923Z" fill="#252525" fill-opacity="0.13"/>
<path d="M245.868 160.176C242.62 149.504 235.447 141.251 231.079 131.051C234.174 139.773 239.001 147.797 241.578 156.698C241.776 157.348 241.951 158.07 242.122 158.759C239.373 151.686 235.282 145.185 232.021 138.324C234.71 145.916 239.026 153.471 240.571 160.689C242.414 167.387 241.889 174.401 242.362 181.267C242.317 182.566 243.881 183.253 244.871 182.596C245.483 183.049 246.406 183.083 247.007 182.551C247.997 181.657 247.675 180.174 247.835 178.96C248.021 172.642 247.788 166.25 245.835 160.181L245.868 160.176Z" fill="#252525" fill-opacity="0.13"/>
<path d="M218.235 186.407C219.656 190.719 221.001 196.13 220.775 200.108C220.395 206.726 218.495 212.72 216.791 218.889C217.726 210.284 220.088 201.671 218.807 193.021C219.154 205.924 212.811 218.187 213.82 231.197C213.846 230.683 213.749 231.173 213.85 231.396C213.884 231.629 214.052 231.842 214.21 231.989C214.21 231.989 214.21 231.989 214.215 232.022C214.153 232.984 213.897 234.008 214.106 234.963C214.398 236.245 216.246 236.55 217.006 235.485C217.994 232.516 217.739 229.188 218.332 226.074C219.215 219.414 221.113 212.945 221.93 206.295C223.05 199.396 220.964 192.667 218.263 186.369L218.235 186.407Z" fill="#252525" fill-opacity="0.13"/>
<path d="M166.56 136.904C171.584 140.75 175.444 145.687 179.148 150.953C183.749 157.446 187.097 164.668 188.563 172.952C186.665 167.486 184.078 162.191 180.791 156.762C173.826 146.471 164.256 138.334 156.016 129.082C162.718 138.052 171.621 146.967 177.177 156.005C182.566 165.068 186.348 175.218 188.286 185.54C188.272 187.514 190.86 188.457 191.758 186.487C191.476 184.353 191.104 182.3 190.637 180.295C191.485 180.51 192.486 180.157 192.829 179.256C192.436 162.143 180.166 146.347 166.55 136.838L166.56 136.904Z" fill="#252525" fill-opacity="0.13"/>
<path d="M174.764 198.016C173.027 196.845 171.219 195.889 169.421 194.999C169.765 194.336 169.713 193.528 169.12 192.97C169.352 192.697 169.497 192.302 169.443 191.936C167.391 188.874 162.357 186.797 159.005 185.288C151.54 182.178 142.825 181.191 135.255 184.488C143.605 182.095 151.754 184.084 158.966 187.776C153.519 185.897 147.697 185.161 141.878 185.819C135.723 186.731 129.033 189.083 125.082 194.088C135.199 184.803 150.073 186.509 160.304 191.76C146.393 188.517 131.398 191.963 119.24 200.327C135.187 191.605 153.679 190.191 169.34 198.582C170.751 199.155 172.013 200.328 173.512 200.582C174.816 200.661 175.549 198.954 174.726 197.988L174.764 198.016Z" fill="#252525" fill-opacity="0.13"/>
<path d="M212.831 323.661C212.304 321.937 211.776 320.213 211.216 318.494C211.429 318.326 211.604 318.131 211.697 317.845C209.365 294.762 199.122 272.444 185.236 253.998C194.509 268.163 200.43 283.335 204.603 299.106C198.963 283.994 192.232 269.316 183.623 255.733C189.797 267.569 194.779 280.772 199.162 293.826C195.373 287.076 191.468 280.685 187.956 273.962C183.3 264.111 182.507 253.484 178.495 242.925C181.558 253.964 181.339 265.796 185.781 276.495C189.024 284.617 194.076 291.859 197.955 299.683C201.855 306.722 204.653 314.366 207.945 321.665C208.259 322.638 208.55 323.683 208.86 324.624C209.5 326.195 208.818 325.718 209.99 326.972C212.342 328.392 213.884 325.715 212.793 323.633L212.831 323.661Z" fill="#252525" fill-opacity="0.13"/>
<path d="M187.296 374.845C186.865 374.229 186.433 373.613 186.007 373.03C186.935 373.096 187.859 372.449 187.982 371.445C183.795 359.246 178.456 347.082 171.497 336.144C165.053 327.306 157.36 318.993 148.404 312.704C156.267 319.189 162.672 327.761 168.396 336.332C171.568 341.676 174.711 348.657 177.697 355.729C171.444 345.197 165.344 334.778 156.544 323.807C164.02 334.566 169.478 346.848 175.871 358.55C170.483 350.644 165.285 342.641 160.719 334.545C165.81 345.726 171.703 356.584 178.62 366.78C181.233 370.643 184.03 374.377 186.923 378.063C187.1 378.342 187.401 378.536 187.748 378.586C190.325 378.306 188.144 375.977 187.334 374.873L187.296 374.845Z" fill="#252525" fill-opacity="0.13"/>
<path d="M140.106 363.408C138.2 362.942 136.372 362.533 134.648 362.142C134.317 361.749 133.826 361.414 133.311 361.15C133.291 361.017 133.276 360.917 133.256 360.784C130.583 358.12 126.954 356.346 124.006 353.892C116.466 348.209 109.227 342.039 101.2 336.972C89.4677 329.393 76.3212 324.2 62.7939 320.798C75.2602 325.072 86.2809 330.375 96.7977 337.556C102.879 341.653 108.597 346.28 114.339 350.836C101.543 342.735 89.3174 333.428 74.3853 327.887C89.9102 334.904 102.74 347.828 117.405 356.842C107.145 352.31 97.8762 346.441 88.5954 339.111C102.854 353.184 120.787 364.978 141.127 366.861C143.638 365.673 141.875 363.417 140.106 363.408Z" fill="#252525" fill-opacity="0.13"/>
<path d="M268.026 240.642C263.686 252.2 259.242 263.978 259.503 276.52C259.418 281.225 259.571 285.929 260.028 290.622C260.065 291.33 260.173 292.062 260.813 292.478C262.727 293.69 264.119 291.614 263.61 289.785C262.923 280.094 262.073 272.297 263.138 262.959C264.073 255.271 266.256 247.977 268.059 240.637L268.026 240.642Z" fill="#252525" fill-opacity="0.13"/>
<path d="M263.382 249.457C256.893 260.28 251.744 277.398 256.85 287.76C257.734 288.446 259.173 288.062 259.557 286.985C259.918 285.98 259.318 284.912 259.199 283.876C256.637 272.321 258.76 260.717 263.382 249.457Z" fill="#252525" fill-opacity="0.13"/>
<path d="M296.424 275.334C296.601 278.13 300.385 277.74 300.566 275.06C305.208 258.425 309.738 241.263 320.957 228.175C307.765 240.569 301.283 258.327 296.424 275.334Z" fill="#252525" fill-opacity="0.13"/>
<path d="M353.511 253.274C343.04 266.829 329.361 277.322 315.03 281.112C314.441 281.267 314.018 281.398 313.79 281.466C313.224 281.549 312.727 281.861 312.42 282.315C311.706 283.237 311.951 284.662 312.863 285.309C313.862 286.079 315.043 285.564 316.127 285.302C318.777 284.603 321.35 283.61 323.784 282.365C324.71 281.956 325.554 281.457 326.431 280.953C325.634 284.063 333.697 278.584 334.75 278.122C338.71 275.699 342.323 272.546 345.034 268.812C340.463 273.535 335.161 276.531 329.41 279.253C339.49 272.931 347.103 263.269 353.516 253.308L353.511 253.274Z" fill="#252525" fill-opacity="0.13"/>
<path d="M313.793 281.465C313.496 281.544 313.496 281.544 313.793 281.465V281.465Z" fill="#252525" fill-opacity="0.13"/>
<path d="M287.499 342.69C300.135 338.472 312.759 333.711 323.386 325.574C305.529 336.551 286.788 338.579 268.234 345.545C267.247 345.997 266.045 346.141 265.23 346.84C264.392 347.61 264.752 349.121 265.796 349.511C268.564 349.372 272.693 347.638 276.306 346.321C276.694 346.876 277.414 347.143 278.079 347.044C280.238 346.928 282.416 346.708 284.545 346.392C296.053 344.653 307.412 340.08 316.44 332.622C307.475 338.438 297.795 341.267 287.494 342.657L287.499 342.69Z" fill="#252525" fill-opacity="0.13"/>
<path d="M282.368 198.598C284.861 196.834 287.335 195.176 289.793 193.859C297.925 188.846 306.934 185.165 314.486 179.218C304.334 185.516 292.453 188.637 282.144 194.789C276.983 197.594 270.422 202.884 267.594 206.057C267.457 206.282 267.392 206.529 267.355 206.739C267.013 206.959 266.677 207.213 266.185 207.796C265.138 209.448 267.431 211.386 268.909 210.113C273.974 207.118 283.688 201.769 290.659 198.56C303.342 193.28 316.382 185.363 321.535 171.951C313.64 186.824 297.469 191.736 282.363 198.565L282.368 198.598Z" fill="#252525" fill-opacity="0.13"/>
<path d="M303.607 131.729C309.289 123.951 314.971 116.172 321.069 108.672C310.644 119.092 300.096 129.835 291.769 142.018C291.379 143.98 293.357 144.707 294.646 143.768C294.937 143.895 295.256 143.984 295.589 143.934C300.387 140.979 303.939 136.033 307.785 131.926C314.891 123.665 321.415 114.911 326.808 105.408C319.202 115.579 311.913 123.528 303.607 131.729Z" fill="#252525" fill-opacity="0.13"/>
</g>
<defs>
<clipPath id="clip0_63_47">
<rect width="332.22" height="469.051" fill="white" transform="translate(0 48.6934) rotate(-8.42821)"/>
</clipPath>
</defs>
</svg>
