<svg width="308" height="574" viewBox="0 0 308 574" fill="none" xmlns="http://www.w3.org/2000/svg">
<g clip-path="url(#clip0_34_540)">
<path d="M188.376 205.247C185.573 203.602 186.004 208.019 185.627 209.151C185.092 212.62 183.591 217.026 182.718 219.873C178.137 234.006 168.86 251.096 161.539 258.945C156.455 264.968 152.002 269.824 147.818 275.579C147.455 275.759 147.127 275.997 146.903 276.407C145.825 278.003 144.81 279.639 143.783 281.322C144.788 276.94 145.453 272.449 145.767 268.485C146.826 258.213 145.682 247.938 146.06 237.646C146.713 223.649 152.232 208.792 154.6 195.291C154.48 195.482 154.818 194.806 154.926 194.465C155.155 193.934 155.332 193.316 155.076 192.763C154.872 192.1 154.121 191.768 153.434 191.869C153.388 191.858 153.267 191.852 152.991 191.98C152.991 191.98 152.962 191.998 152.933 192.015C151.19 193.423 151.302 194.063 150.154 195.544C144.478 203.773 137.443 213.847 135.066 225.191C134.006 230.392 133.547 235.741 134.154 241.034C135.274 249.124 137.955 256.936 139.075 265.025C140.183 274.851 138.474 283.983 137.04 291.1C137.018 291.193 136.977 291.256 136.983 291.331C135.919 295.16 135.022 296.213 134.45 299.036C134.445 299.157 134.572 299.237 134.595 299.341C131.758 306.089 129.384 313.147 127.478 320.393C126.818 315.013 125.368 309.561 122.915 304.402C118.096 294.03 112.248 284.948 109.988 273.933C107.473 261.263 105.46 248.446 103.095 235.764C103.066 235.586 103.048 235.557 103.037 235.603C103.002 235.545 103.042 235.482 103.007 235.424C102.854 234.652 102.287 233.973 101.456 233.965C100.112 233.952 99.7655 235.459 99.3654 236.487C99.0161 237.21 97.9025 241.932 97.253 244.173C94.1097 255.548 91.573 267.146 97.7977 278.476C106.956 292.316 111.795 295.247 119.108 307.727C121.629 312.413 122.726 317.607 124.178 323.451C124.239 324.396 124.311 325.296 124.372 326.046C124.503 328.797 124.614 330.735 124.679 332.857C120.837 353.736 120.835 375.437 125.082 395.196C120.069 386.908 115.083 378.602 110.357 370.139C96.4886 345.782 86.0295 324.788 81.1674 297.774C78.5256 281.839 78.0659 264.703 77.9045 247.15C80.158 241.777 82.0131 236.331 83.7357 230.925C88.0382 222.701 93.3583 215.119 96.7693 210.815C103.469 203.5 108.475 201.572 115.324 195.542C124.802 187.882 129.068 175.828 130.231 164.039C130.839 158.089 130.334 154.266 129.563 148.247C129.437 147.065 129.41 147.474 129.064 145.993C128.887 144.921 127.627 144.072 126.747 144.957C126.11 145.658 126.315 146.713 126.203 147.567C126.215 147.717 125.672 149.028 125.398 149.744C122.941 156.341 118.513 164.877 113.57 171.523C108.954 177.735 101.125 185.262 96.2456 191.948C89.085 201.036 87.4191 212.579 83.7021 223.201C82.144 227.839 80.2505 232.247 78.3631 236.73C77.3069 212.564 75.9373 187.88 81.8638 166.094C83.3167 161.087 85.2482 156.027 87.1137 151.832C89.8578 146.556 92.6193 141.308 95.427 136.071C95.4785 135.962 95.53 135.852 95.6103 135.725C99.3578 130.352 103.007 124.882 104.974 118.581C107.601 109.602 107.713 100.689 108.063 92.1044C108.133 90.7254 108.205 88.2447 108.169 87.7949C108.299 87.1656 108.149 85.4875 106.603 85.4008C105.997 85.3742 105.421 85.7224 105.002 86.1334C103.169 88.3032 101.533 90.4723 100.511 91.8374C94.7011 99.5189 89.1408 107.678 86.5615 117.061C83.9921 126.006 84.0548 135.403 82.7553 144.562C82.5623 147.038 81.955 149.803 81.3304 152.539C77.9453 159.226 75.3415 166.619 74.1127 174.595C71.8589 160.667 68.17 147.095 62.0783 134.23C60.4798 130.873 58.7087 127.62 56.8512 124.42C54.8234 109.175 38.3218 90.5386 25.6842 78.0953C17.4105 69.6166 8.8837 61.3695 1.02953 52.4797C-0.804856 50.8769 -7.96472 39.3656 -8.95756 45.5877C-7.74288 51.2999 -4.4479 56.422 -2.01773 61.6741C2.75808 71.1288 7.64368 80.6351 13.991 89.1784C22.28 100.282 32.9723 109.184 43.2216 118.394C44.9401 119.871 47.9087 122.439 50.7763 125.814C51.9747 127.016 51.7853 127.288 52.1896 127.436C52.5833 127.827 52.8966 128.345 53.3191 128.718C57.3637 136.964 60.9965 144.594 63.7365 152.568C60.1473 149.039 55.7991 146.205 51.2918 144.018C51.182 143.966 51.1298 143.88 51.02 143.829C50.939 143.76 50.8466 143.737 50.783 143.697C50.7308 143.61 50.7361 143.489 50.6839 143.403C41.6289 131.033 28.7549 128.207 16.5376 121.917C5.11682 115.774 -5.70309 108.286 -15.078 100.001C-15.969 99.2429 -16.34 98.7597 -17.1554 98.1915C-18.4387 97.4347 -19.5288 99.0769 -19.1398 99.785C-11.2929 116.266 2.21725 130.737 18.6239 139.013C28.1715 144.009 38.6973 146.723 49.4797 147.001C49.8144 147.035 49.4797 147.001 49.3411 146.967C49.5895 147.053 49.8606 147.046 50.1256 146.964C52.472 148.179 54.8472 149.376 56.9815 150.954C60.0289 153.003 63.9602 157.032 65.904 160.181C65.9563 160.267 65.9737 160.296 66.0259 160.382C70.8967 180.197 71.4407 199.877 71.371 220.557C69.3341 217.19 66.8982 213.553 65.3506 209.89C61.1131 200.935 59.1367 191.949 54.0777 182.351C51.5392 177.44 48.1138 172.947 43.7461 169.496C36.0298 163.628 23.4216 154.548 19.8811 150.125C19.4697 148.015 15.8698 147.913 15.9419 150.306C16.4023 153.212 18.441 155.477 19.7087 158.288C27.756 172.761 37.2861 180.912 47.7975 192.44C55.5661 201.578 62.9789 212.858 67.5877 223.986C68.6269 225.834 70.0128 231.049 71.2822 235.942C70.4356 253.909 70.178 272.069 72.3535 289.897C69.1328 284.573 65.4115 279.591 61.1092 275.078C61.0395 274.963 60.9585 274.894 60.9237 274.836C59.5558 273.03 58.3031 271.154 57.2344 269.127C54.6322 264.176 53.4477 258.838 52.6466 252.64C51.2764 245.371 52.8456 232.628 47.9135 224.605C44.8192 219.165 40.5625 214.467 35.8004 210.429C34.0196 209.305 19.9822 195.782 20.3381 201.699C27.6259 210.303 34.3626 221.245 37.9364 231.702C41.0132 240.297 42.2345 249.465 45.7089 257.938C45.7505 258.266 45.8308 258.139 45.9164 257.891C46.542 260.225 47.3624 262.166 48.2972 263.841C44.0574 260.666 39.5995 257.781 34.987 255.225C30.8161 251.969 26.7551 248.765 22.0765 243.89C21.1613 242.832 20.1878 241.612 19.2257 240.347C13.5523 231.553 10.9329 220.204 8.25586 212.074C5.54573 205.97 1.78673 200.145 -3.06981 195.496C-7.23744 191.531 -13.7618 188.284 -17.7543 186.492C-28.3092 182.106 -41.0276 180.837 -51.0009 179.361C-53.6384 179.03 -55.5087 178.668 -58.0015 178.446C-58.8783 178.426 -60.1589 178.454 -60.425 179.834C-60.4403 180.393 -60.0292 180.813 -59.6128 181.111C-57.4323 182.701 -55.1943 184.257 -52.9449 185.766C-35.6106 196.94 -15.1886 203.731 -1.10684 218.367C7.52438 226.787 12.4263 237.62 20.215 247.571C20.667 248.123 21.1704 248.566 21.6337 249.072C17.5268 247.546 13.3055 246.287 8.99319 245.396C4.09964 243.286 0.118508 241.448 -5.11256 238.519C-10.9267 235.471 -16.7891 231.824 -23.5104 231.565C-33.1273 231.329 -42.2037 237.055 -47.3784 244.942C-53.3054 253.795 -56.7414 263.972 -59.7275 274.112C-60.08 275.544 -60.4855 276.693 -60.5207 278.13C-60.5367 278.493 -60.4141 278.891 -60.0673 279.074C-58.6354 279.427 -58.0328 276.978 -57.136 276.122C-55.4355 274.189 -53.6145 272.065 -51.8564 270.097C-46.0937 263.702 -39.4611 258.55 -32.9676 254.858C-22.3773 248.255 -11.5263 246.763 0.770367 247.855C20.8328 250.932 41.9909 263.489 56.0432 277.946C63.8342 285.302 69.7292 294.787 74.8418 304.863C76.2803 311.855 78.18 318.765 80.662 325.598C84.1942 335.726 88.4118 345.558 93.0672 355.203C87.2126 347.344 81.4302 338.695 76.1606 329.854C67.1407 316.047 60.3437 304.356 46.5084 294.092C34.5128 285.309 20.6703 279.452 8.79518 270.479C7.08335 269.274 6.03417 267.864 4.16173 266.913C1.5055 266.161 1.20023 269.491 2.85522 270.927C11.7742 282.357 15.8842 286.357 23.8034 298.864C27.3019 304.452 30.68 310.232 35.3752 314.939C40.343 320.032 46.5167 323.609 52.598 327.164C72.542 337.389 88.3608 355.416 101.037 372.278C102.15 373.728 103.223 375.241 104.238 376.789C109.458 386.329 114.926 395.758 120.359 405.129C126.338 415.468 132.144 425.911 138.048 436.256C132.222 431.368 126.056 426.96 119.854 423.4C114.363 420.432 108.597 417.984 102.718 415.997C93.5291 411.335 85.7697 404.746 78.3448 396.501C70.8889 387.685 64.7267 377.693 55.6954 370.301C39.793 356.295 17.285 351.709 -3.60602 349.212C-4.72059 348.864 -5.71904 350.333 -4.83327 351.212C-2.31349 352.518 0.56694 353.056 3.14429 354.327C14.9356 359.263 23.7772 368.42 34.7974 377.085C48.9557 388.923 66.1366 395.945 81.3963 406.095C84.5414 408.045 87.4804 410.434 90.5452 412.511C83.4207 410.806 76.1537 409.58 68.8654 408.839C60.152 408.017 51.241 406.803 42.5272 407.475C42.5272 407.475 42.5272 407.475 42.4984 407.492C35.8301 407.516 27.9917 407.816 22.8033 407.102C5.43967 403.807 -15.1996 391.133 -35.1684 391.655C-44.8937 391.759 -54.5559 393.398 -63.9796 395.56C-69.1958 396.75 -74.3364 398.13 -79.4066 399.821C-81.1657 399.903 -81.5889 402.517 -79.6383 402.752C-78.1027 403.082 -75.3068 402.57 -72.7284 402.543C-68.5294 402.401 -63.5552 402.891 -60.7209 403.417C-45.9319 406.225 -32.1562 412.751 -17.4467 415.882C-8.24367 418.099 1.5005 418.416 11.7826 417.542C22.0868 416.38 32.0431 413.149 42.2823 411.554C42.8185 411.466 43.4008 411.389 44.0005 411.34C58.1434 412.495 73.3898 412.55 87.5197 416.542C112.353 422.827 132.004 436.532 149.505 455.781C151.421 458.947 153.353 462.142 155.297 465.29C158.395 470.217 161.326 475.323 164.839 479.96C164.989 480.144 165.158 480.357 165.308 480.541C165.5 480.857 166.207 481.962 166.785 482.202C168.788 484.018 172.098 483.706 174 481.848C178.101 476.93 173.74 473.553 170.668 468.021C164.13 457.863 157.65 447.67 151.343 437.373C147.705 431.554 144.021 425.724 140.383 419.905C134.932 408.815 131.366 397.331 129.373 385.328C129.176 381.948 129.054 378.367 129.405 375.048C130.188 368.089 132.59 360.621 137.135 354.294C141.091 349.071 147.371 345.351 155.589 341.52C165.627 337.059 176.044 331.859 182.923 323.02C185.815 318.833 187.124 315.603 188.39 311.457C190.425 302.993 191.166 297.395 191.428 288.47C191.781 287.038 189.834 284.796 188.441 287.171C187.078 291.416 184.713 294.851 182.149 298.8C176.918 307.114 171.469 314.027 163.942 320.625C158.468 325.744 152.924 328.862 146.985 334.184C138.694 341.794 132.088 351.215 128.198 361.745C126.807 345.408 129.706 328.755 134.452 312.361C134.978 311.217 135.332 309.981 135.812 308.826C139.047 300.461 142.042 292.675 147.067 284.996C150.555 279.584 157.265 273.52 162.092 270.128C167.836 266.3 174.182 263.405 179.044 258.38C188.479 249.607 190.916 236.025 189.695 223.673C189.34 218.148 188.79 212.624 188.81 207.068C188.808 206.48 188.846 205.828 188.4 205.351L188.376 205.247ZM138.751 248.828C135.889 237.273 137.605 225.228 143.345 214.247C145.446 209.792 148.383 205.224 150.941 201.004C150.507 202.367 150.074 203.73 149.778 204.931C147.563 212.836 145.584 220.873 144.385 229.028C142.86 241.389 143.28 253.911 141.941 266.319C141.181 260.449 139.954 254.587 138.769 248.857L138.751 248.828ZM98.2601 193.914C102.252 187.646 108.492 182.299 113.557 175.855C119.35 168.341 124.179 160.467 126.859 151.77C127.645 168.276 125.329 183.554 110.38 193.933C103.557 199.161 94.9826 206.432 89.445 214.499C88.9693 215.337 88.5738 216.048 88.1957 216.788C90.8262 208.789 93.8095 201.048 98.2487 193.96L98.2601 193.914ZM87.7543 127.937C88.3176 122.564 90.1657 115.156 92.6749 110.336C96.1904 103.021 101.197 96.6112 105.858 90.0183C105.906 93.8023 105.155 100.035 104.629 104.363C103.722 112.027 101.801 120.029 97.4413 126.794C94.752 131.251 91.7165 135.721 88.981 140.167C87.8099 141.741 86.685 143.325 85.6297 145.025C86.5905 139.53 87.1015 134.071 87.8005 127.948L87.7543 127.937ZM27.3577 99.0579C12.728 86.0507 4.31862 68.7697 -4.18522 50.8775C8.43093 66.9897 28.7003 84.251 40.1315 99.7041C44.0625 105.228 47.7518 110.937 50.4854 117.145C50.8396 117.796 51.1718 118.735 51.5388 119.732C45.1442 112.475 34.4764 105.562 27.3289 99.0753L27.3577 99.0579ZM40.8225 142.567C31.386 141.2 20.3685 136.503 11.2597 130.024C1.93208 123.637 -7.66693 112.383 -13.8892 103.331C-3.0089 111.57 7.70546 120.184 20.0265 126.45C27.62 130.23 35.8246 133.915 40.9885 139.008C42.7472 140.42 43.8365 141.766 44.7638 142.974C43.4425 142.87 42.1211 142.765 40.8225 142.567ZM42.3922 181.165C38.1763 176.6 33.9293 174.648 29.27 168.7C26.9179 165.917 22.9867 158.703 20.8471 154.061C22.3688 155.342 24.1169 156.997 25.7772 158.312C35.604 167.149 47.7549 172.614 53.1397 184.57C55.9248 190.669 57.7267 197.677 59.9725 204.574C54.8026 196.222 49.4736 188.517 42.3748 181.136L42.3922 181.165ZM-13.0082 243.728C-13.2157 243.775 -13.4694 243.81 -13.7231 243.846C-17.0853 244.071 -20.3999 244.701 -23.5565 245.981C-32.3695 249.543 -38.2751 254.727 -44.9677 260.82C-50.3787 265.587 -54.4722 270.972 -58.8482 276.41C-56.9643 270.947 -54.9543 266.861 -52.5054 261.291C-49.9763 255.594 -46.1733 246.414 -40.4866 241.323C-35.2529 236.978 -28.0416 233.953 -21.8711 235.055C-15.2848 236.26 -8.25277 241.127 -1.70175 243.768C-5.3372 243.412 -9.26046 243.23 -13.0196 243.774L-13.0082 243.728ZM9.55669 227.287C7.78911 225.015 5.96396 222.778 3.97216 220.72C-11.5205 203.556 -34.2178 196.058 -53.0518 183.314C-53.9482 182.677 -54.9658 182.035 -55.9258 181.358C-54.5 181.635 -52.9242 181.901 -51.4984 182.178C-41.1087 183.952 -27.3212 185.754 -19.0129 189.416C-9.44252 194.319 -4.30954 198.841 1.05111 207.313C4.09845 212.545 6.16907 217.268 7.2225 219.854C7.78454 222.148 8.57825 224.695 9.55669 227.287ZM50.525 260.96C49.6158 259.977 48.8697 257.834 47.8795 256.782C47.9832 256.758 47.9711 256.608 47.6986 256.223C44.2989 249.238 42.8881 240.342 39.9332 231.948C36.7506 222.788 31.6113 213.317 25.9938 205.59C30.4471 208.793 34.3649 212.28 38.2856 216.552C41.0132 219.502 44.6088 224.796 45.5887 227.78C47.7861 234.077 47.6403 238.45 48.0051 245.227C48.3898 251.127 49.5416 256.995 51.4356 262.336C51.1745 261.904 50.8209 261.45 50.4962 260.978L50.525 260.96ZM62.799 329.406C55.3552 323.924 45.7514 319.355 39.947 314.178C32.2278 307.526 28.6109 299.533 23.0808 290.456C19.4938 284.331 14.9631 278.856 10.1968 273.641C16.1409 277.553 21.982 281.686 28.0868 285.344C38.8409 292.204 46.0169 296.984 54.7647 305.726C62.4895 313.947 67.6942 322.356 73.8617 332.227C77.0067 337.361 80.1806 342.478 83.4809 347.479C77.1058 340.839 70.3285 334.639 62.8104 329.36L62.799 329.406ZM73.8782 397.63C66.5076 393.244 58.6384 389.788 51.4397 385.101C36.9353 376.46 27.6738 366.024 13.097 356.483C10.9694 355.176 8.69268 354.077 6.4106 353.098C9.05405 353.504 11.7611 353.95 14.8725 354.545C30.5853 357.58 45.3683 363.497 56.3502 374.308C63.643 381.1 68.8885 389.642 75.1921 397.268C76.1074 398.326 77.0052 399.356 77.9144 400.339C76.5902 399.449 75.2486 398.531 73.8207 397.665L73.8782 397.63ZM26.5967 411.293C14.171 414.407 0.36537 415.564 -11.2761 413.801C-24.3039 411.5 -36.517 406.387 -49.1121 402.527C-55.0318 400.604 -62.3101 399.425 -68.9102 399.172C-51.2342 394.73 -33.7252 391.961 -16.4771 396.82C-3.83794 400.103 6.9717 406.34 19.4214 409.895C22.0542 410.543 24.3978 410.973 26.6543 411.259C26.6543 411.259 26.6543 411.259 26.6255 411.276L26.5967 411.293ZM144.149 341.128C150.422 333.953 158.531 328.772 165.366 322.2C174.941 313.853 181.513 303.077 188.189 292.474C188.19 296.05 188.364 299.522 187.578 302.317C184.974 314.388 178.678 323.15 169.385 329.558C162.173 334.078 155.571 336.42 147.529 341.128C145.03 342.521 142.579 344.122 140.307 345.89C141.644 344.137 142.959 342.477 144.177 341.111L144.149 341.128ZM105.152 284.72C97.16 275.992 96.4539 262.543 98.9437 250.737C99.6306 247.648 100.765 243.935 101.613 240.788C104.368 251.19 106.143 266.863 109.2 278.026C110.821 284.279 114.058 290.929 116.901 296.994C113.406 292.582 109.291 288.703 105.152 284.72ZM186.507 222.692C186.742 236.663 184.681 248.917 173.806 258.168C170.12 261.498 164.051 264.658 158.15 269.329C161.809 265.111 165.6 260.655 168.687 256.075C177.779 243.421 181.491 228.242 186.215 213.631C186.306 216.642 186.444 219.664 186.478 222.71L186.507 222.692Z" fill="#252525" fill-opacity="0.45"/>
<path d="M101.322 361.962C100.059 360.329 98.4531 356.504 97.0138 355.685C95.9802 355.406 95.0674 356.626 95.6533 357.53C98.8743 364.544 103.953 373.069 108.836 380.493C109.358 381.16 109.679 382.145 110.574 382.39C111.33 382.601 112.194 382.078 112.387 381.293C112.586 380.387 111.879 379.674 111.53 378.902C108.233 373.192 104.688 367.592 101.334 361.916L101.322 361.962Z" fill="#F5F5F5" fill-opacity="0.62"/>
<path d="M32.7774 92.162C23.0111 80.8909 11.3761 71.3398 2.10438 59.6516C9.29551 70.2397 18.6498 79.2049 26.8763 88.9702C30.5198 93.1739 34.3449 98.1325 38.1768 103.362C27.6181 93.1209 17.2601 82.5614 8.7963 70.9741C19.6775 87.4675 32.4354 102.904 46.8651 116.426C47.1142 116.707 47.4723 116.844 47.7782 116.895C48.6192 118.156 50.7571 117.531 50.6764 115.968C45.7944 107.442 39.0462 99.7308 32.7025 92.168L32.7774 92.162Z" fill="#F5F5F5" fill-opacity="0.62"/>
<path d="M45.0971 141.318C45.1163 140.245 44.0124 139.654 43.1682 139.104C40.4275 137.302 37.5488 135.663 34.6475 134.116C20.8235 126.989 5.76548 121.593 -5.50488 110.759C6.30337 123.586 22.6006 130.317 37.2791 139.246C24.7878 135.363 13.1862 128.661 2.52479 120.329C11.1251 128.178 20.5821 135.234 31.1504 140.162C35.0339 142.098 39.1515 143.381 43.3486 144.341C44.0528 144.465 44.8327 144.78 45.4773 144.35C46.7034 143.648 46.3965 141.711 45.0858 141.364L45.0971 141.318Z" fill="#F5F5F5" fill-opacity="0.62"/>
<path d="M49.8507 179.719C42.7302 171.132 32.9236 166.293 24.9525 158.575C31.1784 165.422 38.732 170.956 44.5496 178.169C44.9841 178.692 45.4247 179.29 45.8478 179.86C40.5788 174.399 34.2925 169.986 28.6326 164.918C34.0477 170.881 40.9486 176.18 45.1642 182.239C49.4526 187.704 51.6802 194.376 54.7712 200.525C55.2313 201.741 56.9389 201.769 57.5987 200.781C58.3378 200.962 59.2019 200.636 59.5511 199.914C60.1179 198.706 59.2481 197.463 58.9266 196.282C56.6556 190.383 53.9696 184.578 49.8219 179.736L49.8507 179.719Z" fill="#F5F5F5" fill-opacity="0.62"/>
<path d="M34.5055 214.593C37.4828 218.02 40.8158 222.49 42.1446 226.246C44.3534 232.497 44.9182 238.76 45.7314 245.108C43.2672 236.81 42.1161 227.954 37.5897 220.471C42.8988 232.237 41.7889 245.999 47.7493 257.607C47.5745 257.123 47.6743 257.613 47.8537 257.78C47.9756 257.981 48.2126 258.113 48.4147 258.187C48.4147 258.187 48.4147 258.187 48.4321 258.216C48.7469 259.126 48.9064 260.17 49.4689 260.97C50.2342 262.04 52.0555 261.606 52.3451 260.33C52.1088 257.211 50.5868 254.239 49.9295 251.138C48.1698 244.655 47.4189 237.955 45.6016 231.506C43.9677 224.711 39.443 219.311 34.5168 214.546L34.5055 214.593Z" fill="#F5F5F5" fill-opacity="0.62"/>
<path d="M-32.2884 188.916C-26.168 190.52 -20.6999 193.581 -15.2479 197.005C-8.49508 201.215 -2.61492 206.581 1.93887 213.654C-1.92426 209.348 -6.35695 205.464 -11.4871 201.727C-21.8892 194.929 -33.861 191.125 -45.0366 185.777C-35.3885 191.459 -23.7304 196.24 -15.113 202.427C-6.63947 208.701 0.772711 216.601 6.54977 225.371C7.30049 227.197 10.0516 227.066 10.1188 224.902C9.03338 223.043 7.89645 221.294 6.69058 219.625C7.55539 219.495 8.34311 218.783 8.31079 217.819C1.33223 202.189 -16.0895 192.364 -32.3232 188.858L-32.2884 188.916Z" fill="#F5F5F5" fill-opacity="0.62"/>
<path d="M-1.09744 242.104C-3.15251 241.696 -5.18945 241.513 -7.19158 241.388C-7.13081 240.644 -7.49107 239.918 -8.25355 239.632C-8.14517 239.292 -8.164 238.871 -8.3555 238.554C-11.4317 236.523 -16.877 236.554 -20.5519 236.458C-28.6393 236.475 -37.0583 238.934 -42.7649 244.902C-35.9892 239.467 -27.7046 238.151 -19.6264 238.768C-25.3763 239.14 -31.0296 240.712 -36.1417 243.569C-41.466 246.79 -46.727 251.545 -48.4354 257.688C-42.6946 245.213 -28.3172 241.037 -16.8519 241.925C-30.9358 244.312 -43.4327 253.286 -51.412 265.7C-40.0761 251.492 -23.5682 243.039 -5.88164 244.723C-4.35881 244.706 -2.74149 245.3 -1.26022 244.955C-0.0273147 244.523 -0.0109315 242.666 -1.14363 242.093L-1.09744 242.104Z" fill="#F5F5F5" fill-opacity="0.62"/>
<path d="M82.5823 343.265C81.4294 341.879 80.2765 340.493 79.0948 339.124C79.2266 338.887 79.3122 338.639 79.288 338.339C68.214 317.953 50.139 301.329 30.2014 289.685C44.23 299.164 55.5554 310.868 65.5008 323.8C54.4578 312.043 42.5757 301.109 29.3845 291.909C39.6544 300.439 49.3536 310.689 58.4417 321.034C52.3387 316.274 46.266 311.888 40.4281 307.046C32.3259 299.761 27.4865 290.266 19.7041 282.08C26.7972 291.076 31.169 302.073 39.4012 310.223C45.5325 316.46 52.991 321.186 59.5935 326.902C65.9107 331.886 71.4469 337.854 77.3043 343.313C77.9705 344.089 78.6427 344.941 79.2915 345.688C80.4899 346.889 79.6759 346.714 81.2417 347.417C83.9601 347.817 84.3471 344.753 82.5361 343.254L82.5823 343.265Z" fill="#F5F5F5" fill-opacity="0.62"/>
<path d="M78.8194 400.341C78.1834 399.939 77.5474 399.538 76.9289 399.165C77.8104 398.868 78.4126 397.914 78.138 396.94C69.5601 387.309 59.9341 378.154 49.2876 370.757C39.9279 365.097 29.62 360.404 18.9282 358.066C28.6876 361.007 37.908 366.437 46.5005 372.128C51.4921 375.831 57.0891 381.054 62.577 386.422C52.7385 379.126 43.0847 371.875 30.7273 365.159C41.7821 372.191 51.5641 381.409 61.9832 389.73C53.9578 384.521 46.0701 379.15 38.7293 373.448C47.7468 381.792 57.3792 389.527 67.7003 396.257C71.6032 398.809 75.6267 401.172 79.719 403.453C79.9908 403.642 80.3429 403.704 80.6829 403.616C82.9512 402.362 80.0392 401.058 78.8656 400.352L78.8194 400.341Z" fill="#F5F5F5" fill-opacity="0.62"/>
<path d="M30.8762 408.036C28.9391 408.343 27.0943 408.673 25.3533 408.979C24.8968 408.744 24.3137 408.625 23.7367 408.581C23.6671 408.466 23.6148 408.379 23.5452 408.264C20.0501 406.84 16.0171 406.607 12.35 405.484C3.19852 403.157 -5.86271 400.265 -15.2249 398.696C-28.9744 396.242 -43.1062 396.535 -56.897 398.627C-43.7479 397.748 -31.5337 398.379 -19.0587 400.936C-11.866 402.364 -4.80365 404.421 2.25263 406.403C-12.6796 403.878 -27.5532 400.021 -43.4662 400.684C-26.4358 401.153 -9.60705 408.113 7.40232 410.757C-3.81246 410.543 -14.6293 408.713 -26.022 405.541C-7.43198 413.008 13.6662 416.953 33.1533 410.825C35.009 408.759 32.512 407.361 30.8762 408.036Z" fill="#F5F5F5" fill-opacity="0.62"/>
<path d="M101.393 245.363C101.858 257.7 102.313 270.28 107.402 281.747C109.142 286.119 111.102 290.398 113.338 294.549C113.646 295.188 114.029 295.821 114.779 295.957C117.013 296.335 117.494 293.882 116.318 292.392C111.937 283.72 108.14 276.858 105.511 267.834C103.402 260.383 102.596 252.812 101.421 245.346L101.393 245.363Z" fill="#F5F5F5" fill-opacity="0.62"/>
<path d="M100.517 255.288C98.7159 267.778 100.586 285.555 109.3 293.139C110.38 293.429 111.559 292.519 111.498 291.377C111.442 290.31 110.476 289.558 109.965 288.648C103.135 278.982 100.607 267.46 100.517 255.288Z" fill="#F5F5F5" fill-opacity="0.62"/>
<path d="M140.995 266.379C142.238 268.89 145.577 267.067 144.709 264.526C142.559 247.39 140.101 229.81 145.39 213.403C138.014 229.933 138.901 248.816 140.995 266.379Z" fill="#252525" fill-opacity="0.45"/>
<path d="M185.115 223.966C180.698 240.515 172.139 255.48 160.387 264.516C159.904 264.887 159.564 265.17 159.38 265.321C158.891 265.617 158.552 266.097 158.445 266.634C158.143 267.76 158.92 268.98 160.012 269.224C161.23 269.548 162.121 268.617 163.018 267.956C165.193 266.286 167.182 264.376 168.945 262.287C169.64 261.552 170.226 260.765 170.84 259.961C171.307 263.138 176.625 254.968 177.418 254.134C180.133 250.369 182.246 246.064 183.303 241.572C180.914 247.696 177.182 252.508 172.93 257.242C179.783 247.515 183.069 235.66 185.132 223.995L185.115 223.966Z" fill="#F5F5F5" fill-opacity="0.62"/>
<path d="M159.382 265.32C159.139 265.507 159.139 265.507 159.382 265.32V265.32Z" fill="#F5F5F5" fill-opacity="0.62"/>
<path d="M158.802 331.95C168.825 323.174 178.626 313.903 185.282 302.29C173.056 319.317 156.557 328.433 142.138 342.029C141.403 342.828 140.349 343.426 139.868 344.385C139.393 345.42 140.309 346.674 141.422 346.63C143.921 345.432 147.059 342.237 149.882 339.625C150.455 339.986 151.222 339.955 151.797 339.607C153.744 338.665 155.667 337.62 157.509 336.506C167.449 330.453 176.157 321.844 181.6 311.476C175.581 320.306 167.747 326.656 158.784 331.921L158.802 331.95Z" fill="#F5F5F5" fill-opacity="0.62"/>
<path d="M98.3658 201.043C99.9832 198.453 101.624 195.966 103.381 193.803C108.943 186.036 115.829 179.158 120.494 170.753C113.567 180.487 103.816 187.958 96.6863 197.617C93.011 202.199 89.0055 209.614 87.624 213.634C87.5846 213.894 87.6201 214.147 87.667 214.355C87.4375 214.69 87.2253 215.054 86.9972 215.782C86.6696 217.71 89.534 218.611 90.4046 216.866C93.9179 212.146 100.809 203.457 105.997 197.802C115.653 188.03 124.619 175.688 124.187 161.326C122.655 178.095 109.64 188.877 98.3484 201.014L98.3658 201.043Z" fill="#F5F5F5" fill-opacity="0.62"/>
<path d="M92.103 131.163C94.3363 121.792 96.5695 112.422 99.2934 103.148C93.7068 116.787 88.1329 130.773 85.1623 145.228C85.5616 147.188 87.6668 147.094 88.4925 145.73C88.8098 145.734 89.1384 145.693 89.4262 145.519C92.7093 140.938 94.0724 135.003 96.032 129.729C99.3923 119.363 102.025 108.768 103.324 97.9185C100.242 110.24 96.5925 120.388 92.103 131.163Z" fill="#F5F5F5" fill-opacity="0.62"/>
</g>
<defs>
<clipPath id="clip0_34_540">
<rect width="332.22" height="469.051" fill="white" transform="translate(-220 171.952) rotate(-31.1703)"/>
</clipPath>
</defs>
</svg>
