<svg width="220" height="480" viewBox="0 0 220 480" fill="none" xmlns="http://www.w3.org/2000/svg">
<g clip-path="url(#clip0_34_788)">
<path d="M130.654 305.757C130.541 303.009 127.596 305.339 126.618 305.589C123.905 306.797 120.083 307.747 117.658 308.43C105.507 311.643 89.1001 312.87 80.1643 311.257C73.5514 310.399 68.0577 309.455 62.0476 309.113C61.7533 308.938 61.4341 308.813 61.0398 308.842C59.4104 308.806 57.7816 308.833 56.1147 308.873C59.6923 307.582 63.1909 305.998 66.1549 304.406C73.947 300.456 80.7325 294.936 88.2275 290.491C98.4836 284.546 111.58 281.668 122.269 277.17C122.078 277.172 122.713 277.103 123.005 277.024C123.488 276.943 124.009 276.786 124.285 276.351C124.663 275.902 124.555 275.215 124.169 274.773C124.156 274.735 124.104 274.647 123.887 274.509C123.887 274.509 123.861 274.496 123.836 274.484C122.036 273.889 121.632 274.261 120.053 274.123C111.599 273.854 101.211 273.462 92.0531 276.967C87.8676 278.595 83.852 280.717 80.3646 283.574C75.1228 288.075 70.7933 293.56 65.5515 298.061C59.0694 303.349 51.7904 306.315 46.0704 308.555C45.9942 308.581 45.9306 308.582 45.8801 308.62C42.669 309.616 41.5094 309.461 39.2392 310.346C39.1505 310.398 39.1516 310.525 39.0886 310.589C32.9892 311.661 26.8812 313.205 20.8533 315.167C24.3781 312.234 27.5922 308.706 30.1394 304.598C35.3105 296.42 39.0931 288.101 45.894 281.448C53.7557 273.857 61.9508 266.555 69.8897 259.065C70.0034 258.963 70.0159 258.937 69.9778 258.95C70.0028 258.899 70.0664 258.898 70.0914 258.847C70.571 258.385 70.7937 257.67 70.4194 257.075C69.8127 256.113 68.5821 256.557 67.6674 256.743C66.9936 256.826 63.124 258.196 61.2327 258.76C51.7011 261.734 42.2888 265.24 37.0795 274.857C31.4281 287.711 31.5595 292.495 26.0309 303.412C23.8513 307.352 20.6593 310.511 17.1668 314.22C16.5219 314.696 15.9151 315.16 15.4095 315.546C13.5124 316.899 12.1847 317.866 10.7046 318.884C-5.90717 325.713 -21.346 335.649 -33.457 347.72C-29.8568 340.357 -26.2311 333.007 -22.3753 325.769C-11.3999 304.749 -1.25481 287.694 15.7355 271.864C25.8612 262.688 37.8412 254.513 50.2542 246.36C55.1082 245.502 59.8323 244.328 64.4665 243.077C72.2873 242.372 80.1171 242.684 84.7411 243.14C93.0133 244.556 96.677 247.234 104.103 249.345C113.893 252.58 124.421 250.094 133.341 245.522C137.851 243.23 140.34 241.12 144.269 237.815C145.052 237.184 144.748 237.352 145.644 236.428C146.325 235.811 146.352 234.525 145.319 234.305C144.529 234.173 143.873 234.802 143.214 235.113C143.113 235.19 141.931 235.405 141.296 235.537C135.478 236.811 127.378 237.57 120.387 237.097C113.854 236.659 104.913 234.536 97.9227 234.127C88.1784 233.195 79.204 237.296 69.9458 239.516C65.933 240.532 61.93 241.204 57.8764 241.914C74.584 230.096 91.5167 217.817 109.729 212.056C113.956 210.797 118.44 209.853 122.278 209.259C127.289 208.795 132.286 208.356 137.297 207.955C137.399 207.942 137.501 207.928 137.628 207.927C143.166 208.133 148.728 208.223 154.111 206.738C161.702 204.494 168.094 200.492 174.361 196.809C175.374 196.228 177.172 195.143 177.475 194.911C177.982 194.716 179.107 193.84 178.461 192.701C178.202 192.257 177.691 192.007 177.207 191.897C174.824 191.587 172.532 191.417 171.093 191.315C162.967 190.7 154.617 190.481 146.76 192.943C139.221 195.211 132.565 199.559 125.454 202.83C123.605 203.826 121.359 204.66 119.127 205.469C112.82 206.123 106.368 207.657 100.131 210.435C109.007 202.453 116.973 193.614 123.335 183.389C124.991 180.714 126.494 177.965 127.92 175.178C137.836 166.754 143.536 146.48 146.601 131.792C148.843 122.023 150.805 112.18 153.532 102.522C153.832 100.483 158.742 90.118 153.861 92.2611C150.354 95.7412 148.219 100.431 145.596 104.565C141.057 112.292 136.532 120.121 133.362 128.549C129.259 139.53 127.822 151.214 125.964 162.722C125.701 164.621 125.234 167.909 124.146 171.495C123.84 172.897 123.56 172.887 123.639 173.243C123.542 173.702 123.317 174.162 123.244 174.634C119.231 181.287 115.466 187.366 111.049 192.966C111.916 188.797 111.94 184.406 111.432 180.198C111.419 180.096 111.456 180.02 111.442 179.918C111.454 179.829 111.428 179.753 111.428 179.689C111.465 179.612 111.554 179.561 111.591 179.484C116.244 167.378 112.359 156.925 111.238 145.353C110.378 134.416 110.75 123.289 112.35 112.826C112.481 111.845 112.655 111.36 112.686 110.52C112.637 109.26 110.969 109.237 110.644 109.838C102.513 122.968 98.4059 139.205 100.032 154.667C100.85 163.747 103.74 172.477 108.48 180.275C108.61 180.528 108.48 180.275 108.441 180.161C108.494 180.377 108.623 180.566 108.802 180.718C109.013 182.943 109.249 185.181 109.103 187.422C109.042 190.528 107.976 195.17 106.626 197.995C106.589 198.071 106.576 198.097 106.539 198.173C94.6737 210.713 80.9227 220.112 66.1793 229.534C67.6419 226.543 69.1135 223.144 71.0107 220.366C75.4403 213.25 80.9277 207.729 85.4386 199.735C87.7699 195.68 89.3973 191.185 89.8522 186.498C90.4925 178.322 91.178 165.194 92.7032 160.65C94.0157 159.391 92.4399 156.783 90.7701 157.931C88.9139 159.589 88.236 162.077 86.8172 164.265C80.2068 176.618 78.7726 187.131 75.3856 199.887C72.4426 209.599 67.8134 220.038 62.0077 228.412C61.169 229.998 58.0935 233.372 55.1942 236.516C42.0257 244.142 28.9889 252.275 17.3025 261.987C19.6151 257.258 21.4551 252.329 22.6951 247.202C22.7451 247.099 22.7571 247.01 22.7821 246.959C23.4406 245.159 24.2015 243.408 25.1538 241.72C27.4845 237.601 30.739 234.314 34.7814 230.906C39.325 226.602 49.1084 221.883 52.5574 214.7C55.0104 210.008 56.4026 204.828 57.0944 199.591C57.0787 197.81 60.2699 181.631 56.2235 184.594C53.4407 193.718 48.7422 203.521 42.94 210.853C38.2343 216.978 32.2721 222.045 27.8358 228.397C27.621 228.577 27.7482 228.576 27.9641 228.523C26.5903 230.037 25.5852 231.509 24.8215 232.941C25.1383 228.472 25.1494 223.979 24.8555 219.527C25.2615 215.069 25.6811 210.713 27.0063 205.152C27.3399 204.016 27.7615 202.765 28.2213 201.501C31.8789 193.438 38.7525 186.378 43.3098 180.75C46.4116 176.026 48.8333 170.685 49.9166 165.101C50.8288 160.32 50.1509 154.192 49.5967 150.532C47.8833 141.014 42.9619 131.386 39.4441 123.615C38.4716 121.587 37.8729 120.091 36.8891 118.216C36.5017 117.583 35.8956 116.685 34.7922 117.127C34.3871 117.373 34.2769 117.857 34.2553 118.29C34.1227 120.57 34.0413 122.874 33.998 125.165C33.987 142.614 38.5085 160.251 34.5457 176.971C32.5088 186.967 27.0474 195.416 23.5351 205.514C23.3493 206.088 23.2651 206.649 23.1174 207.21C22.3217 203.59 21.2846 200.01 19.943 196.535C19.2036 192.087 18.6875 188.413 18.3754 183.351C17.881 177.819 17.7911 171.978 14.8969 167.078C10.6609 160.129 2.43082 156.295 -5.54956 156.225C-14.5617 156.063 -23.3745 158.279 -31.9556 160.799C-33.1356 161.204 -34.1389 161.442 -35.1769 162.075C-35.4428 162.23 -35.6695 162.499 -35.6412 162.83C-35.2362 164.01 -33.2187 163.317 -32.1984 163.563C-30.0447 163.887 -27.7001 164.21 -25.4952 164.56C-18.3069 165.731 -11.6044 168.089 -6.00404 171.018C3.5429 175.528 9.57411 182.563 14.4286 191.811C21.4272 207.492 22.1841 228.294 18.3349 244.911C16.6702 253.822 12.6223 262.36 7.7955 270.611C3.4803 274.836 -0.565056 279.352 -4.28888 284.247C-9.87632 291.398 -14.9389 298.901 -19.6685 306.63C-16.7591 298.866 -13.2543 290.791 -9.37801 282.994C-3.68732 270.255 1.51685 260.065 2.48262 245.523C3.23689 232.967 1.06421 220.438 2.00937 207.88C2.0828 206.111 2.605 204.719 2.42391 202.951C1.74233 200.718 -0.766033 202.025 -1.02978 203.86C-5.07624 215.439 -6.03956 220.195 -11.3097 231.556C-13.6832 236.604 -16.2475 241.654 -17.446 247.15C-18.7941 253.016 -18.5116 259.046 -18.2553 265C-16.3955 283.87 -21.9754 303.379 -28.1652 320.119C-28.6868 321.575 -29.2721 323.031 -29.9085 324.462C-34.3041 332.544 -38.5076 340.752 -42.6862 348.909C-47.3029 357.897 -52.0729 366.809 -56.7282 375.747C-55.9193 369.363 -55.6069 362.959 -55.915 356.916C-56.3179 351.651 -57.2169 346.428 -58.4965 341.336C-59.3878 332.664 -58.2543 324.127 -55.7891 315.069C-52.9319 305.728 -48.6459 296.768 -47.5237 286.959C-44.8425 269.232 -51.8881 251.12 -59.6787 235.115C-59.9417 234.163 -61.4438 234.125 -61.6637 235.158C-61.4389 237.549 -60.5022 239.844 -60.2263 242.26C-58.3376 252.908 -60.8029 263.391 -61.9201 275.199C-63.8574 290.692 -60.9845 306.13 -61.2163 321.633C-61.1631 324.764 -61.5167 327.949 -61.5908 331.08C-63.6407 325.231 -66.0969 319.5 -68.9075 313.976C-72.3129 307.401 -75.5302 300.506 -79.9986 294.615C-79.9986 294.615 -79.9986 294.615 -80.0242 294.603C-83.0951 289.87 -86.8977 284.431 -88.7659 280.413C-94.3739 266.552 -94.8098 246.066 -104.326 232.099C-108.854 225.229 -114.444 219.106 -120.298 213.392C-123.534 210.226 -126.869 207.202 -130.394 204.369C-131.258 203.155 -133.312 204.051 -132.586 205.547C-132.117 206.79 -130.472 208.544 -129.272 210.366C-127.248 213.288 -125.319 217.051 -124.395 219.308C-119.62 231.115 -117.954 243.903 -113.445 255.801C-110.807 263.363 -106.57 270.44 -101.24 277.354C-95.6944 284.152 -88.8359 289.755 -83.0126 296.309C-82.7041 296.65 -82.3826 297.029 -82.0736 297.433C-76.4182 308.023 -69.4749 318.894 -65.8443 330.774C-58.9426 351.318 -59.6924 371.573 -65.3712 392.839C-66.7463 395.651 -68.1338 398.489 -69.4833 401.313C-71.5692 405.774 -73.8591 410.197 -75.549 414.82C-75.611 415.011 -75.6854 415.228 -75.7474 415.419C-75.8849 415.701 -76.3468 416.71 -76.2531 417.231C-76.6277 419.487 -74.89 421.699 -72.6965 422.201C-67.3198 422.866 -66.9155 418.218 -64.3865 413.499C-60.1544 404.196 -55.8712 394.919 -51.4347 385.716C-48.9612 380.463 -46.5009 375.173 -44.0274 369.92C-38.6341 360.963 -32.0979 353.167 -24.4721 346.253C-22.158 344.565 -19.6661 342.838 -17.1447 341.568C-11.8354 338.938 -5.42342 337.226 1.15937 337.563C6.68659 337.985 12.2091 340.748 18.6978 344.84C26.4682 349.938 34.938 354.967 44.3761 355.812C48.679 355.952 51.5759 355.405 55.1052 354.406C62.058 351.978 66.3799 349.941 72.8488 346.04C74.0288 345.635 74.7329 343.224 72.4047 343.321C68.7607 344.295 65.2344 344.186 61.2507 344.17C52.9408 344.257 45.5275 343.546 37.387 341.213C31.239 339.663 26.4823 337.147 19.9757 335.36C10.7655 332.947 1.03872 332.562 -8.23374 334.617C2.75097 326.145 15.925 320.581 29.7607 316.45C30.8157 316.301 31.8566 315.986 32.8985 315.799C40.3302 314.269 47.241 312.833 55.0049 312.892C60.452 312.895 67.8386 314.891 72.4624 316.772C77.8156 319.104 82.7819 322.293 88.5829 323.451C99.1446 326.144 109.923 321.658 118.15 315.133C121.918 312.35 125.596 309.429 129.557 306.899C129.975 306.628 130.456 306.357 130.591 305.821L130.654 305.757ZM76.9253 290.413C83.8347 283.085 93.1892 278.789 103.63 277.844C107.761 277.299 112.355 277.296 116.529 277.183C115.361 277.499 114.193 277.814 113.203 278.154C106.565 280.198 99.9416 282.471 93.5909 285.353C84.099 289.93 75.3835 295.963 65.9439 300.692C69.7715 297.464 73.3799 293.906 76.9128 290.439L76.9253 290.413ZM97.447 236.46C103.734 236.43 110.395 238.42 117.299 239.072C125.297 239.752 133.11 239.581 140.524 237.504C129.142 245.623 117.213 250.972 102.983 245.091C96.1399 242.632 87.041 239.861 78.7664 239.616C77.9523 239.662 77.2654 239.706 76.566 239.776C83.4609 237.984 90.3336 236.561 97.4089 236.473L97.447 236.46ZM139.57 198.772C143.65 196.712 149.766 194.634 154.344 194.212C161.158 193.363 168.011 193.989 174.835 194.285C172.165 196.053 167.388 198.373 164.068 199.98C158.2 202.845 151.628 205.143 144.819 205.14C140.417 205.268 135.847 205.156 131.432 205.246C129.776 205.133 128.134 205.058 126.441 205.086C130.79 203.253 134.908 201.117 139.583 198.81L139.57 198.772ZM132.455 142.582C135.008 126.218 143.45 112.322 152.284 98.0786C146.6 114.432 143.603 136.756 137.845 151.965C135.716 157.291 133.344 162.53 130.179 167.318C129.879 167.868 129.363 168.534 128.822 169.252C131.056 161.379 131.088 150.625 132.429 142.569L132.455 142.582ZM107.67 172.086C104.321 164.747 102.616 154.759 103.054 145.311C103.326 135.751 106.936 123.768 110.526 115.197C109.648 126.71 108.427 138.277 109.611 149.911C110.4 157.044 111.536 164.568 110.278 170.574C110.078 172.472 109.62 173.863 109.185 175.076C108.654 174.088 108.124 173.1 107.67 172.086ZM80.9312 190.879C82.2479 185.789 81.6914 181.874 83.7888 175.836C84.6918 172.888 88.0231 166.787 90.3453 163.14C90.131 164.809 89.7542 166.81 89.5791 168.594C87.7932 179.631 89.4701 190.778 83.4308 200.083C80.3677 204.858 76.2076 209.349 72.3298 214.105C75.9033 206.603 78.9438 199.283 80.9437 190.853L80.9312 190.879ZM11.0542 180.119C10.9259 179.993 10.7844 179.829 10.643 179.665C8.94275 177.376 6.97721 175.307 4.62076 173.647C-1.94921 169.009 -8.34156 167.182 -15.7406 165.212C-21.6098 163.545 -27.3154 163.1 -33.188 162.477C-28.4384 161.315 -24.6115 160.874 -19.5279 160.065C-14.317 159.255 -6.04508 157.757 0.180827 159.471C5.66875 161.204 11.1236 164.948 13.165 169.843C15.324 175.08 15.0826 182.311 16.2037 188.181C14.7921 185.432 13.1249 182.557 11.0162 180.132L11.0542 180.119ZM33.0836 188.642C33.8905 186.344 34.6463 184.021 35.1981 181.662C40.3127 162.781 35.2522 143.201 35.6928 123.966C35.7354 123.037 35.7264 122.019 35.7685 121.026C36.2241 122.167 36.7569 123.41 37.2124 124.551C40.7086 132.755 45.7408 143.388 46.9407 150.975C47.8353 160.029 46.9697 165.751 43.3979 173.444C41.0711 178.008 38.6597 181.644 37.3023 183.578C35.9279 185.028 34.4796 186.759 33.0836 188.642ZM27.8911 233.207C28.1741 232.11 29.357 230.598 29.652 229.412C29.7161 229.475 29.8173 229.397 29.9667 229.027C33.3787 223.41 39.0609 218.332 43.679 212.386C48.738 205.927 53.1217 197.934 56.0458 190.399C55.8069 195.034 55.1202 199.418 53.8768 204.163C53.0278 207.454 50.9083 212.437 49.2339 214.5C45.7607 218.947 42.583 220.846 37.9293 224.209C33.9085 227.185 30.2614 230.692 27.3297 234.485C27.5172 234.101 27.6785 233.642 27.8655 233.194L27.8911 233.207ZM-15.1784 273.284C-14.6875 265.478 -15.8356 256.553 -14.8113 250.054C-13.6142 241.516 -9.58407 235.282 -5.65945 227.191C-2.94514 221.835 -1.125 216.104 0.401973 210.326C0.340736 216.346 0.076099 222.394 0.269385 228.412C0.314015 239.204 0.200414 246.497 -2.01262 256.724C-4.32329 265.984 -7.92178 273.537 -12.1192 282.445C-14.3312 287.034 -16.5177 291.635 -18.5638 296.273C-16.7601 288.697 -15.4534 281.037 -15.1403 273.27L-15.1784 273.284ZM-58.638 312.409C-58.8931 305.157 -60.0385 297.976 -60.001 290.709C-60.4965 276.434 -57.3136 265.066 -57.2023 250.327C-57.2464 248.215 -57.507 246.092 -57.8563 244.02C-56.9344 246.087 -56.0119 248.217 -55.0099 250.702C-49.9733 263.27 -47.4127 276.496 -50.0741 289.259C-51.5661 297.558 -55.2401 305.201 -57.7785 313.178C-58.1121 314.313 -58.4332 315.424 -58.7162 316.521C-58.6899 315.171 -58.6512 313.796 -58.6892 312.384L-58.638 312.409ZM-90.0104 285.031C-97.9159 277.618 -105.062 268.327 -109.138 259.238C-113.468 248.916 -115.423 237.887 -118.446 227.159C-119.789 222.068 -122.283 216.35 -125.126 211.539C-113.871 222.079 -103.883 233.266 -99.4402 247.761C-95.9873 258.256 -95.474 268.802 -92.3012 279.286C-91.5566 281.456 -90.7892 283.32 -89.9593 285.056C-89.9593 285.056 -89.9593 285.056 -89.9849 285.044L-90.0104 285.031ZM13.7371 336.522C21.7146 337.699 29.1135 341.095 36.9188 342.948C47.2413 345.936 57.9169 345.676 68.5175 345.57C65.9739 347.208 63.5837 348.922 61.2356 349.643C51.4557 353.319 42.339 352.852 33.5249 349.176C27.0071 346.115 22.317 342.491 15.2856 338.927C13.1501 337.787 10.8885 336.776 8.5905 335.97C10.45 336.119 12.2333 336.294 13.7626 336.535L13.7371 336.522ZM36.0058 282.948C38.5545 273.266 47.7989 266.604 57.3374 262.969C59.8491 262.043 63.0102 261.15 65.6373 260.312C59.4988 267.035 49.1629 275.476 42.6221 282.762C38.916 286.779 35.667 292.127 32.6551 296.927C34.1933 292.42 35.068 287.716 36.0058 282.948ZM117.388 312.416C107.557 318.981 97.8961 323.127 86.3346 319.627C82.2777 318.53 77.2506 315.66 71.2253 313.601C75.902 314.272 80.8077 314.929 85.4793 315.028C98.6449 315.7 111.143 311.39 123.7 308.058C121.6 309.502 119.513 310.985 117.362 312.404L117.388 312.416Z" fill="black" fill-opacity="0.13"/>
<path d="M139.842 143.279C143.388 131.17 144.854 118.519 148.923 106.571C144.684 116.536 142.59 127.296 139.41 137.62C138.089 142.137 136.313 147.129 134.347 152.25C136.797 140.048 139.566 127.844 143.933 116.517C137.183 131.811 132.044 147.956 129.033 164.413C128.947 164.719 129.013 165.037 129.117 165.277C128.606 166.453 130.03 167.687 131.105 166.914C134.934 159.537 137.329 151.205 139.804 143.229L139.842 143.279Z" fill="#F5F5F5"/>
<path d="M110.516 174.555C111.288 174.077 111.203 173.021 111.208 172.169C111.234 169.394 111.082 166.595 110.854 163.823C109.593 150.725 106.536 137.542 109.081 124.563C105.364 138.838 108.039 153.513 108.41 168.044C105.452 157.38 104.906 146.058 105.951 134.658C104.306 144.37 103.617 154.329 104.951 164.104C105.353 167.753 106.326 171.27 107.565 174.695C107.799 175.253 107.932 175.952 108.533 176.214C109.594 176.765 110.832 175.659 110.478 174.568L110.516 174.555Z" fill="#F5F5F5"/>
<path d="M85.3757 195.522C88.2232 186.524 87.1746 177.332 89.0149 168.127C86.9946 175.692 86.5174 183.599 84.0506 191.041C83.8773 191.59 83.6534 192.177 83.442 192.739C84.9139 186.49 85.1746 179.997 86.1875 173.65C84.4258 180.233 83.8162 187.569 81.4365 193.342C79.513 198.896 75.7869 203.536 72.8277 208.551C72.1738 209.435 72.9355 210.663 73.9411 210.679C74.1501 211.288 74.7779 211.754 75.4517 211.671C76.5703 211.521 77.0561 210.333 77.7493 209.564C80.9055 205.247 83.805 200.678 85.3501 195.509L85.3757 195.522Z" fill="#F5F5F5"/>
<path d="M53.5394 200.577C52.4648 204.264 50.8112 208.683 48.7476 211.348C45.3124 215.782 41.116 219.052 36.9724 222.537C41.7468 216.984 47.5198 212.11 50.77 205.463C44.8313 214.628 34.5331 220.141 29.0051 229.697C29.2693 229.351 28.9665 229.646 28.9301 229.85C28.8426 230.029 28.8574 230.258 28.8971 230.436C28.8971 230.436 28.8971 230.436 28.8846 230.461C28.3812 231.102 27.7119 231.694 27.4006 232.46C26.9897 233.495 28.1321 234.592 29.1724 234.213C31.2837 232.617 32.7002 230.173 34.6052 228.285C38.4114 224.065 42.8339 220.462 46.5889 216.216C50.6746 211.942 52.4442 206.25 53.5774 200.564L53.5394 200.577Z" fill="#F5F5F5"/>
<path d="M41.217 141.302C42.8783 146.391 43.2052 151.682 43.2661 157.129C43.3639 163.861 42.2391 170.501 39.2929 176.98C40.5874 172.26 41.3201 167.328 41.629 161.967C41.7014 151.454 38.9252 141.195 37.6113 130.796C37.9878 140.262 39.9261 150.744 39.4709 159.708C38.8879 168.609 36.663 177.5 33.0696 185.626C32.1145 186.996 33.4676 188.893 35.0374 187.95C35.863 186.326 36.5869 184.716 37.2216 183.094C37.7102 183.65 38.5777 183.884 39.2481 183.42C47.1715 171.298 46.1819 154.405 41.242 141.251L41.217 141.302Z" fill="#F5F5F5"/>
<path d="M17.6641 187.849C17.0132 186.2 16.2105 184.667 15.3829 183.186C15.9402 182.888 16.2914 182.3 16.1454 181.626C16.4374 181.547 16.7283 181.341 16.8658 181.06C16.9019 177.941 14.386 174.082 12.7716 171.424C9.05534 165.679 3.45062 160.816 -3.4082 159.489C3.56133 161.82 8.29167 167.111 11.5522 173.14C8.65397 169.22 4.94667 165.919 0.573449 163.59C-4.15598 161.277 -9.94786 159.712 -15.1008 161.311C-3.5974 159.682 5.95777 167.997 10.5771 176.559C2.42919 167.634 -9.67824 162.854 -22.1633 162.862C-6.86446 164.42 6.7085 172.292 13.6102 185.645C14.3197 186.72 14.6377 188.143 15.562 189.039C16.4334 189.718 17.7623 188.879 17.651 187.811L17.6641 187.849Z" fill="#F5F5F5"/>
<path d="M-15.9776 293.704C-15.5196 292.249 -15.0616 290.794 -14.6291 289.327C-14.4002 289.312 -14.1843 289.259 -13.982 289.105C-4.55103 271.891 -1.00328 251.42 -1.85058 231.904C-2.16924 246.225 -5.30855 259.641 -9.95335 272.639C-6.64703 259.399 -4.3099 245.938 -3.80666 232.342C-5.17099 243.553 -8.02099 255.147 -11.2181 266.35C-10.6267 259.829 -10.2882 253.5 -9.51739 247.13C-8.04527 238.03 -3.50711 230.239 -1.24756 220.954C-4.39905 230.12 -10.2195 238.266 -12.2473 247.854C-13.876 255.072 -13.8226 262.542 -14.8651 269.857C-15.5178 276.633 -17.2278 283.304 -18.4287 289.971C-18.6759 290.801 -18.9737 291.669 -19.2084 292.473C-19.5141 293.875 -19.7618 293.216 -19.5455 294.652C-18.5849 296.769 -16.2277 295.641 -15.9906 293.666L-15.9776 293.704Z" fill="#F5F5F5"/>
<path d="M62.2817 262.25C53.7186 268.231 44.9781 274.316 39.1514 283.187C36.8383 286.428 34.6917 289.781 32.7627 293.273C32.449 293.784 32.174 294.347 32.4211 294.943C33.1749 296.705 35.1406 295.924 35.6617 294.405C39.8243 287.318 42.967 281.474 48.1828 275.471C52.5174 270.558 57.5342 266.518 62.3073 262.263L62.2817 262.25Z" fill="#F5F5F5"/>
<path d="M54.82 266.173C45.1105 270.611 33.3202 280.083 31.9167 289.755C32.2047 290.656 33.392 291.078 34.1761 290.511C34.9096 289.983 35.0023 288.951 35.4154 288.171C39.164 278.885 46.2029 271.811 54.82 266.173Z" fill="#F5F5F5"/>
<path d="M65.4672 300.047C64.2507 302.081 67.077 303.621 68.4866 301.84C79.6924 292.463 91.0726 282.664 105.166 278.912C90.029 281.235 77.0025 290.514 65.4672 300.047Z" fill="#F5F5F5"/>
<path d="M115.844 312.009C102.049 316.446 87.4836 317.211 75.6738 312.988C75.1886 312.814 74.8313 312.703 74.6399 312.641C74.2053 312.429 73.7087 312.408 73.2775 312.577C72.3384 312.878 71.8264 313.99 72.1525 314.878C72.4796 315.893 73.5505 316.1 74.4317 316.436C76.6149 317.218 78.885 317.758 81.1785 318.056C82.0199 318.214 82.8476 318.27 83.701 318.339C81.655 320.126 89.9024 320.168 90.8586 320.35C94.7803 320.557 98.8106 320.089 102.49 318.783C97.0398 319.888 91.9068 319.437 86.5921 318.581C96.6501 319.001 106.588 315.909 115.832 312.035L115.844 312.009Z" fill="#F5F5F5"/>
<path d="M74.6416 312.642C74.3972 312.554 74.3972 312.554 74.6416 312.642V312.642Z" fill="#F5F5F5"/>
<path d="M26.9771 342.742C37.8098 345.854 48.8937 348.581 60.2027 347.997C42.4916 347.098 28.4505 339.535 12.1753 335.504C11.2703 335.347 10.3625 334.871 9.45973 334.969C8.50642 335.104 8.03363 336.33 8.57499 337.102C10.5713 338.331 14.2816 339.1 17.4324 339.912C17.4374 340.485 17.8112 341.016 18.3225 341.266C19.8836 342.22 21.5078 343.109 23.144 343.909C32.0018 348.209 42.1142 350.461 51.9825 349.584C42.9443 349.346 34.8391 346.682 26.9896 342.717L26.9771 342.742Z" fill="#F5F5F5"/>
<path d="M92.4242 239.8C95.0074 239.765 97.5276 239.793 99.8716 240.053C107.944 240.452 115.99 242.201 124.105 241.671C114.009 241.2 104.229 237.685 94.0924 237.037C89.1498 236.52 82.0402 237.067 78.5479 237.925C78.3451 238.016 78.1809 238.157 78.0548 238.286C77.7111 238.276 77.3549 238.292 76.7328 238.463C75.2113 239.113 75.8821 241.563 77.5222 241.383C82.4887 241.721 91.8257 242.644 98.2244 243.745C109.598 246.139 122.484 246.865 132.503 239.98C119.872 246.57 106.242 242.249 92.4367 239.775L92.4242 239.8Z" fill="#F5F5F5"/>
<path d="M139.267 203.343C146.956 200.64 154.644 197.938 162.489 195.629C150.228 197.901 137.726 200.34 126.083 204.847C124.871 206.029 125.902 207.483 127.251 207.446C127.393 207.673 127.573 207.888 127.829 208.013C132.591 208.251 137.437 206.503 142.086 205.482C150.999 203.125 159.742 200.145 168.055 196.101C157.879 199.551 148.988 201.602 139.267 203.343Z" fill="#F5F5F5"/>
</g>
<defs>
<clipPath id="clip0_34_788">
<rect width="281.071" height="396.835" fill="white" transform="translate(-32.6792) rotate(26.0578)"/>
</clipPath>
</defs>
</svg>
