<svg width="316" height="574" viewBox="0 0 316 574" fill="none" xmlns="http://www.w3.org/2000/svg">
<g clip-path="url(#clip0_34_561)">
<path d="M408.376 205.247C405.573 203.602 406.004 208.019 405.627 209.151C405.092 212.62 403.591 217.026 402.718 219.873C398.137 234.006 388.86 251.096 381.539 258.945C376.455 264.968 372.002 269.824 367.818 275.579C367.455 275.759 367.127 275.997 366.903 276.407C365.825 278.003 364.81 279.639 363.783 281.322C364.788 276.94 365.453 272.449 365.767 268.485C366.826 258.213 365.682 247.938 366.06 237.646C366.713 223.649 372.232 208.792 374.6 195.291C374.48 195.482 374.818 194.806 374.926 194.465C375.155 193.934 375.332 193.316 375.076 192.763C374.872 192.1 374.121 191.768 373.434 191.869C373.388 191.858 373.267 191.852 372.991 191.98C372.991 191.98 372.962 191.998 372.933 192.015C371.19 193.423 371.302 194.063 370.154 195.544C364.478 203.773 357.443 213.847 355.066 225.191C354.006 230.392 353.547 235.741 354.154 241.034C355.274 249.124 357.955 256.936 359.075 265.025C360.183 274.851 358.474 283.983 357.04 291.1C357.018 291.193 356.977 291.256 356.983 291.331C355.919 295.16 355.022 296.213 354.45 299.036C354.445 299.157 354.572 299.237 354.595 299.341C351.758 306.089 349.384 313.147 347.478 320.393C346.818 315.013 345.368 309.561 342.915 304.402C338.096 294.03 332.248 284.948 329.988 273.933C327.473 261.263 325.46 248.446 323.095 235.764C323.066 235.586 323.048 235.557 323.037 235.603C323.002 235.545 323.042 235.482 323.007 235.424C322.854 234.652 322.287 233.973 321.456 233.965C320.112 233.952 319.765 235.459 319.365 236.487C319.016 237.21 317.902 241.932 317.253 244.173C314.11 255.548 311.573 267.146 317.798 278.476C326.956 292.316 331.795 295.247 339.108 307.727C341.629 312.413 342.726 317.607 344.178 323.451C344.239 324.396 344.311 325.296 344.372 326.046C344.503 328.797 344.614 330.735 344.679 332.857C340.837 353.736 340.835 375.437 345.082 395.196C340.069 386.908 335.083 378.602 330.357 370.139C316.489 345.782 306.03 324.788 301.167 297.774C298.526 281.839 298.066 264.703 297.905 247.15C300.158 241.777 302.013 236.331 303.736 230.925C308.038 222.701 313.358 215.119 316.769 210.815C323.469 203.5 328.475 201.572 335.324 195.542C344.802 187.882 349.068 175.828 350.231 164.039C350.839 158.089 350.334 154.266 349.563 148.247C349.437 147.065 349.41 147.474 349.064 145.993C348.887 144.921 347.627 144.072 346.747 144.957C346.11 145.658 346.315 146.713 346.203 147.567C346.215 147.717 345.672 149.028 345.398 149.744C342.941 156.341 338.513 164.877 333.57 171.523C328.954 177.735 321.125 185.262 316.246 191.948C309.085 201.036 307.419 212.579 303.702 223.201C302.144 227.839 300.251 232.247 298.363 236.73C297.307 212.564 295.937 187.88 301.864 166.094C303.317 161.087 305.248 156.027 307.114 151.832C309.858 146.556 312.619 141.308 315.427 136.071C315.479 135.962 315.53 135.852 315.61 135.725C319.358 130.352 323.007 124.882 324.974 118.581C327.601 109.602 327.713 100.689 328.063 92.1044C328.133 90.7254 328.205 88.2447 328.169 87.7949C328.299 87.1656 328.149 85.4875 326.603 85.4008C325.997 85.3742 325.421 85.7224 325.002 86.1334C323.169 88.3032 321.533 90.4723 320.511 91.8374C314.701 99.5189 309.141 107.678 306.561 117.061C303.992 126.006 304.055 135.403 302.755 144.562C302.562 147.038 301.955 149.803 301.33 152.539C297.945 159.226 295.341 166.619 294.113 174.595C291.859 160.667 288.17 147.095 282.078 134.23C280.48 130.873 278.709 127.62 276.851 124.42C274.823 109.175 258.322 90.5386 245.684 78.0953C237.41 69.6166 228.884 61.3695 221.03 52.4797C219.195 50.8769 212.035 39.3656 211.042 45.5877C212.257 51.2999 215.552 56.422 217.982 61.6741C222.758 71.1288 227.644 80.6351 233.991 89.1784C242.28 100.282 252.972 109.184 263.222 118.394C264.94 119.871 267.909 122.439 270.776 125.814C271.975 127.016 271.785 127.288 272.19 127.436C272.583 127.827 272.897 128.345 273.319 128.718C277.364 136.964 280.997 144.594 283.736 152.568C280.147 149.039 275.799 146.205 271.292 144.018C271.182 143.966 271.13 143.88 271.02 143.829C270.939 143.76 270.847 143.737 270.783 143.697C270.731 143.61 270.736 143.489 270.684 143.403C261.629 131.033 248.755 128.207 236.538 121.917C225.117 115.774 214.297 108.286 204.922 100.001C204.031 99.2429 203.66 98.7597 202.845 98.1915C201.561 97.4347 200.471 99.0769 200.86 99.785C208.707 116.266 222.217 130.737 238.624 139.013C248.172 144.009 258.697 146.723 269.48 147.001C269.814 147.035 269.48 147.001 269.341 146.967C269.589 147.053 269.861 147.046 270.126 146.964C272.472 148.179 274.847 149.376 276.981 150.954C280.029 153.003 283.96 157.032 285.904 160.181C285.956 160.267 285.974 160.296 286.026 160.382C290.897 180.197 291.441 199.877 291.371 220.557C289.334 217.19 286.898 213.553 285.351 209.89C281.113 200.935 279.137 191.949 274.078 182.351C271.539 177.44 268.114 172.947 263.746 169.496C256.03 163.628 243.422 154.548 239.881 150.125C239.47 148.015 235.87 147.913 235.942 150.306C236.402 153.212 238.441 155.477 239.709 158.288C247.756 172.761 257.286 180.912 267.798 192.44C275.566 201.578 282.979 212.858 287.588 223.986C288.627 225.834 290.013 231.049 291.282 235.942C290.436 253.909 290.178 272.069 292.354 289.897C289.133 284.573 285.411 279.591 281.109 275.078C281.04 274.963 280.959 274.894 280.924 274.836C279.556 273.03 278.303 271.154 277.234 269.127C274.632 264.176 273.448 258.838 272.647 252.64C271.276 245.371 272.846 232.628 267.913 224.605C264.819 219.165 260.562 214.467 255.8 210.429C254.02 209.305 239.982 195.782 240.338 201.699C247.626 210.303 254.363 221.245 257.936 231.702C261.013 240.297 262.235 249.465 265.709 257.938C265.75 258.266 265.831 258.139 265.916 257.891C266.542 260.225 267.362 262.166 268.297 263.841C264.057 260.666 259.599 257.781 254.987 255.225C250.816 251.969 246.755 248.765 242.077 243.89C241.161 242.832 240.188 241.612 239.226 240.347C233.552 231.553 230.933 220.204 228.256 212.074C225.546 205.97 221.787 200.145 216.93 195.496C212.763 191.531 206.238 188.284 202.246 186.492C191.691 182.106 178.972 180.837 168.999 179.361C166.362 179.03 164.491 178.668 161.999 178.446C161.122 178.426 159.841 178.454 159.575 179.834C159.56 180.393 159.971 180.813 160.387 181.111C162.568 182.701 164.806 184.257 167.055 185.766C184.389 196.94 204.811 203.731 218.893 218.367C227.524 226.787 232.426 237.62 240.215 247.571C240.667 248.123 241.17 248.566 241.634 249.072C237.527 247.546 233.305 246.287 228.993 245.396C224.1 243.286 220.119 241.448 214.887 238.519C209.073 235.471 203.211 231.824 196.49 231.565C186.873 231.329 177.796 237.055 172.622 244.942C166.695 253.795 163.259 263.972 160.272 274.112C159.92 275.544 159.515 276.693 159.479 278.13C159.463 278.493 159.586 278.891 159.933 279.074C161.365 279.427 161.967 276.978 162.864 276.122C164.565 274.189 166.385 272.065 168.144 270.097C173.906 263.702 180.539 258.55 187.032 254.858C197.623 248.255 208.474 246.763 220.77 247.855C240.833 250.932 261.991 263.489 276.043 277.946C283.834 285.302 289.729 294.787 294.842 304.863C296.28 311.855 298.18 318.765 300.662 325.598C304.194 335.726 308.412 345.558 313.067 355.203C307.213 347.344 301.43 338.695 296.161 329.854C287.141 316.047 280.344 304.356 266.508 294.092C254.513 285.309 240.67 279.452 228.795 270.479C227.083 269.274 226.034 267.864 224.162 266.913C221.506 266.161 221.2 269.491 222.855 270.927C231.774 282.357 235.884 286.357 243.803 298.864C247.302 304.452 250.68 310.232 255.375 314.939C260.343 320.032 266.517 323.609 272.598 327.164C292.542 337.389 308.361 355.416 321.037 372.278C322.15 373.728 323.223 375.241 324.238 376.789C329.458 386.329 334.926 395.758 340.359 405.129C346.338 415.468 352.144 425.911 358.048 436.256C352.222 431.368 346.056 426.96 339.854 423.4C334.363 420.432 328.597 417.984 322.718 415.997C313.529 411.335 305.77 404.746 298.345 396.501C290.889 387.685 284.727 377.693 275.695 370.301C259.793 356.295 237.285 351.709 216.394 349.212C215.279 348.864 214.281 350.333 215.167 351.212C217.687 352.518 220.567 353.056 223.144 354.327C234.936 359.263 243.777 368.42 254.797 377.085C268.956 388.923 286.137 395.945 301.396 406.095C304.541 408.045 307.48 410.434 310.545 412.511C303.421 410.806 296.154 409.58 288.865 408.839C280.152 408.017 271.241 406.803 262.527 407.475C262.527 407.475 262.527 407.475 262.498 407.492C255.83 407.516 247.992 407.816 242.803 407.102C225.44 403.807 204.8 391.133 184.832 391.655C175.106 391.759 165.444 393.398 156.02 395.56C150.804 396.75 145.664 398.13 140.593 399.821C138.834 399.903 138.411 402.517 140.362 402.752C141.897 403.082 144.693 402.57 147.272 402.543C151.471 402.401 156.445 402.891 159.279 403.417C174.068 406.225 187.844 412.751 202.553 415.882C211.756 418.099 221.501 418.416 231.783 417.542C242.087 416.38 252.043 413.149 262.282 411.554C262.818 411.466 263.401 411.389 264.001 411.34C278.143 412.495 293.39 412.55 307.52 416.542C332.353 422.827 352.004 436.532 369.505 455.781C371.421 458.947 373.353 462.142 375.297 465.29C378.395 470.217 381.326 475.323 384.839 479.96C384.989 480.144 385.158 480.357 385.308 480.541C385.5 480.857 386.207 481.962 386.785 482.202C388.788 484.018 392.098 483.706 394 481.848C398.101 476.93 393.74 473.553 390.668 468.021C384.13 457.863 377.65 447.67 371.343 437.373C367.705 431.554 364.021 425.724 360.383 419.905C354.932 408.815 351.366 397.331 349.373 385.328C349.176 381.948 349.054 378.367 349.405 375.048C350.188 368.089 352.59 360.621 357.135 354.294C361.091 349.071 367.371 345.351 375.589 341.52C385.627 337.059 396.044 331.859 402.923 323.02C405.815 318.833 407.124 315.603 408.39 311.457C410.425 302.993 411.166 297.395 411.428 288.47C411.781 287.038 409.834 284.796 408.441 287.171C407.078 291.416 404.713 294.851 402.149 298.8C396.918 307.114 391.469 314.027 383.942 320.625C378.468 325.744 372.924 328.862 366.985 334.184C358.694 341.794 352.088 351.215 348.198 361.745C346.807 345.408 349.706 328.755 354.452 312.361C354.978 311.217 355.332 309.981 355.812 308.826C359.047 300.461 362.042 292.675 367.067 284.996C370.555 279.584 377.265 273.52 382.092 270.128C387.836 266.3 394.182 263.405 399.044 258.38C408.479 249.607 410.916 236.025 409.695 223.673C409.34 218.148 408.79 212.624 408.81 207.068C408.808 206.48 408.846 205.828 408.4 205.351L408.376 205.247ZM358.751 248.828C355.889 237.273 357.605 225.228 363.345 214.247C365.446 209.792 368.383 205.224 370.941 201.004C370.507 202.367 370.074 203.73 369.778 204.931C367.563 212.836 365.584 220.873 364.385 229.028C362.86 241.389 363.28 253.911 361.941 266.319C361.181 260.449 359.954 254.587 358.769 248.857L358.751 248.828ZM318.26 193.914C322.252 187.646 328.492 182.299 333.557 175.855C339.35 168.341 344.179 160.467 346.859 151.77C347.645 168.276 345.329 183.554 330.38 193.933C323.557 199.161 314.983 206.432 309.445 214.499C308.969 215.337 308.574 216.048 308.196 216.788C310.826 208.789 313.809 201.048 318.249 193.96L318.26 193.914ZM307.754 127.937C308.318 122.564 310.166 115.156 312.675 110.336C316.19 103.021 321.197 96.6112 325.858 90.0183C325.906 93.8023 325.155 100.035 324.629 104.363C323.722 112.027 321.801 120.029 317.441 126.794C314.752 131.251 311.717 135.721 308.981 140.167C307.81 141.741 306.685 143.325 305.63 145.025C306.591 139.53 307.102 134.071 307.801 127.948L307.754 127.937ZM247.358 99.0579C232.728 86.0507 224.319 68.7697 215.815 50.8775C228.431 66.9897 248.7 84.251 260.131 99.7041C264.062 105.228 267.752 110.937 270.485 117.145C270.84 117.796 271.172 118.735 271.539 119.732C265.144 112.475 254.476 105.562 247.329 99.0753L247.358 99.0579ZM260.822 142.567C251.386 141.2 240.369 136.503 231.26 130.024C221.932 123.637 212.333 112.383 206.111 103.331C216.991 111.57 227.705 120.184 240.027 126.45C247.62 130.23 255.825 133.915 260.988 139.008C262.747 140.42 263.837 141.766 264.764 142.974C263.442 142.87 262.121 142.765 260.822 142.567ZM262.392 181.165C258.176 176.6 253.929 174.648 249.27 168.7C246.918 165.917 242.987 158.703 240.847 154.061C242.369 155.342 244.117 156.997 245.777 158.312C255.604 167.149 267.755 172.614 273.14 184.57C275.925 190.669 277.727 197.677 279.972 204.574C274.803 196.222 269.474 188.517 262.375 181.136L262.392 181.165ZM206.992 243.728C206.784 243.775 206.531 243.81 206.277 243.846C202.915 244.071 199.6 244.701 196.444 245.981C187.631 249.543 181.725 254.727 175.032 260.82C169.621 265.587 165.528 270.972 161.152 276.41C163.036 270.947 165.046 266.861 167.495 261.291C170.024 255.594 173.827 246.414 179.513 241.323C184.747 236.978 191.958 233.953 198.129 235.055C204.715 236.26 211.747 241.127 218.298 243.768C214.663 243.412 210.74 243.23 206.98 243.774L206.992 243.728ZM229.557 227.287C227.789 225.015 225.964 222.778 223.972 220.72C208.48 203.556 185.782 196.058 166.948 183.314C166.052 182.677 165.034 182.035 164.074 181.358C165.5 181.635 167.076 181.901 168.502 182.178C178.891 183.952 192.679 185.754 200.987 189.416C210.557 194.319 215.69 198.841 221.051 207.313C224.098 212.545 226.169 217.268 227.223 219.854C227.785 222.148 228.578 224.695 229.557 227.287ZM270.525 260.96C269.616 259.977 268.87 257.834 267.879 256.782C267.983 256.758 267.971 256.608 267.699 256.223C264.299 249.238 262.888 240.342 259.933 231.948C256.751 222.788 251.611 213.317 245.994 205.59C250.447 208.793 254.365 212.28 258.286 216.552C261.013 219.502 264.609 224.796 265.589 227.78C267.786 234.077 267.64 238.45 268.005 245.227C268.39 251.127 269.542 256.995 271.436 262.336C271.174 261.904 270.821 261.45 270.496 260.978L270.525 260.96ZM282.799 329.406C275.355 323.924 265.751 319.355 259.947 314.178C252.228 307.526 248.611 299.533 243.081 290.456C239.494 284.331 234.963 278.856 230.197 273.641C236.141 277.553 241.982 281.686 248.087 285.344C258.841 292.204 266.017 296.984 274.765 305.726C282.49 313.947 287.694 322.356 293.862 332.227C297.007 337.361 300.181 342.478 303.481 347.479C297.106 340.839 290.329 334.639 282.81 329.36L282.799 329.406ZM293.878 397.63C286.508 393.244 278.638 389.788 271.44 385.101C256.935 376.46 247.674 366.024 233.097 356.483C230.969 355.176 228.693 354.077 226.411 353.098C229.054 353.504 231.761 353.95 234.872 354.545C250.585 357.58 265.368 363.497 276.35 374.308C283.643 381.1 288.889 389.642 295.192 397.268C296.107 398.326 297.005 399.356 297.914 400.339C296.59 399.449 295.249 398.531 293.821 397.665L293.878 397.63ZM246.597 411.293C234.171 414.407 220.365 415.564 208.724 413.801C195.696 411.5 183.483 406.387 170.888 402.527C164.968 400.604 157.69 399.425 151.09 399.172C168.766 394.73 186.275 391.961 203.523 396.82C216.162 400.103 226.972 406.34 239.421 409.895C242.054 410.543 244.398 410.973 246.654 411.259C246.654 411.259 246.654 411.259 246.626 411.276L246.597 411.293ZM364.149 341.128C370.422 333.953 378.531 328.772 385.366 322.2C394.941 313.853 401.513 303.077 408.189 292.474C408.19 296.05 408.364 299.522 407.578 302.317C404.974 314.388 398.678 323.15 389.385 329.558C382.173 334.078 375.571 336.42 367.529 341.128C365.03 342.521 362.579 344.122 360.307 345.89C361.644 344.137 362.959 342.477 364.177 341.111L364.149 341.128ZM325.152 284.72C317.16 275.992 316.454 262.543 318.944 250.737C319.631 247.648 320.765 243.935 321.613 240.788C324.368 251.19 326.143 266.863 329.2 278.026C330.821 284.279 334.058 290.929 336.901 296.994C333.406 292.582 329.291 288.703 325.152 284.72ZM406.507 222.692C406.742 236.663 404.681 248.917 393.806 258.168C390.12 261.498 384.051 264.658 378.15 269.329C381.809 265.111 385.6 260.655 388.687 256.075C397.779 243.421 401.491 228.242 406.215 213.631C406.306 216.642 406.444 219.664 406.478 222.71L406.507 222.692Z" fill="#252525" fill-opacity="0.45"/>
<path d="M321.323 361.962C320.059 360.329 318.454 356.504 317.014 355.685C315.981 355.406 315.068 356.626 315.654 357.53C318.875 364.544 323.953 373.069 328.837 380.493C329.358 381.16 329.679 382.145 330.574 382.39C331.331 382.601 332.194 382.078 332.387 381.293C332.586 380.387 331.88 379.674 331.531 378.902C328.234 373.192 324.689 367.592 321.334 361.916L321.323 361.962Z" fill="#252525" fill-opacity="0.45"/>
<path d="M252.777 92.162C243.011 80.8909 231.376 71.3398 222.104 59.6516C229.296 70.2397 238.65 79.2049 246.876 88.9702C250.52 93.1739 254.345 98.1325 258.177 103.362C247.618 93.1209 237.26 82.5614 228.796 70.9741C239.677 87.4675 252.435 102.904 266.865 116.426C267.114 116.707 267.472 116.844 267.778 116.895C268.619 118.156 270.757 117.531 270.676 115.968C265.794 107.442 259.046 99.7308 252.702 92.168L252.777 92.162Z" fill="#252525" fill-opacity="0.45"/>
<path d="M265.097 141.318C265.116 140.245 264.012 139.654 263.168 139.104C260.427 137.302 257.549 135.663 254.647 134.116C240.823 126.99 225.765 121.593 214.495 110.76C226.303 123.587 242.601 130.317 257.279 139.246C244.788 135.363 233.186 128.661 222.525 120.329C231.125 128.178 240.582 135.234 251.15 140.162C255.034 142.098 259.151 143.381 263.349 144.341C264.053 144.465 264.833 144.78 265.477 144.35C266.703 143.648 266.396 141.711 265.086 141.364L265.097 141.318Z" fill="#252525" fill-opacity="0.45"/>
<path d="M269.85 179.719C262.73 171.132 252.923 166.293 244.952 158.575C251.178 165.422 258.731 170.956 264.549 178.169C264.984 178.692 265.424 179.29 265.847 179.86C260.578 174.399 254.292 169.986 248.632 164.918C254.047 170.881 260.948 176.18 265.164 182.239C269.452 187.704 271.68 194.376 274.771 200.525C275.231 201.741 276.938 201.769 277.598 200.781C278.337 200.962 279.201 200.636 279.551 199.914C280.117 198.706 279.248 197.463 278.926 196.282C276.655 190.383 273.969 184.578 269.821 179.736L269.85 179.719Z" fill="#252525" fill-opacity="0.45"/>
<path d="M254.505 214.593C257.482 218.02 260.815 222.49 262.144 226.246C264.353 232.497 264.918 238.76 265.731 245.108C263.267 236.81 262.116 227.954 257.589 220.471C262.898 232.237 261.788 245.999 267.749 257.607C267.574 257.123 267.674 257.613 267.853 257.78C267.975 257.981 268.212 258.113 268.414 258.187C268.414 258.187 268.414 258.187 268.432 258.216C268.746 259.126 268.906 260.17 269.468 260.97C270.234 262.04 272.055 261.606 272.345 260.33C272.108 257.211 270.586 254.24 269.929 251.138C268.169 244.655 267.418 237.955 265.601 231.506C263.967 224.711 259.443 219.311 254.516 214.547L254.505 214.593Z" fill="#252525" fill-opacity="0.45"/>
<path d="M187.712 188.916C193.832 190.52 199.3 193.581 204.752 197.005C211.505 201.215 217.385 206.581 221.939 213.654C218.076 209.348 213.643 205.464 208.513 201.727C198.111 194.929 186.139 191.125 174.963 185.777C184.612 191.459 196.27 196.24 204.887 202.427C213.361 208.701 220.773 216.601 226.55 225.371C227.3 227.197 230.052 227.066 230.119 224.902C229.033 223.043 227.896 221.294 226.691 219.625C227.555 219.495 228.343 218.783 228.311 217.819C221.332 202.189 203.91 192.364 187.677 188.858L187.712 188.916Z" fill="#252525" fill-opacity="0.45"/>
<path d="M218.903 242.104C216.847 241.696 214.811 241.513 212.808 241.388C212.869 240.644 212.509 239.918 211.746 239.632C211.855 239.292 211.836 238.871 211.644 238.554C208.568 236.523 203.123 236.554 199.448 236.458C191.361 236.475 182.942 238.934 177.235 244.902C184.011 239.467 192.295 238.151 200.374 238.768C194.624 239.14 188.97 240.712 183.858 243.569C178.534 246.79 173.273 251.545 171.565 257.688C177.305 245.214 191.683 241.037 203.148 241.925C189.064 244.312 176.567 253.286 168.588 265.7C179.924 251.492 196.432 243.039 214.118 244.723C215.641 244.706 217.259 245.3 218.74 244.955C219.973 244.523 219.989 242.666 218.856 242.093L218.903 242.104Z" fill="#252525" fill-opacity="0.45"/>
<path d="M302.582 343.265C301.429 341.879 300.276 340.493 299.095 339.124C299.227 338.887 299.312 338.639 299.288 338.339C288.214 317.953 270.139 301.329 250.201 289.685C264.23 299.164 275.555 310.868 285.501 323.8C274.458 312.043 262.576 301.109 249.384 291.909C259.654 300.438 269.354 310.689 278.442 321.034C272.339 316.273 266.266 311.888 260.428 307.046C252.326 299.761 247.487 290.266 239.704 282.08C246.797 291.076 251.169 302.073 259.401 310.223C265.533 316.46 272.991 321.186 279.593 326.902C285.911 331.886 291.447 337.854 297.304 343.313C297.97 344.089 298.643 344.941 299.291 345.688C300.49 346.889 299.676 346.714 301.242 347.417C303.96 347.817 304.347 344.753 302.536 343.254L302.582 343.265Z" fill="#252525" fill-opacity="0.45"/>
<path d="M298.819 400.341C298.183 399.939 297.547 399.538 296.928 399.165C297.81 398.868 298.412 397.914 298.138 396.94C289.56 387.309 279.934 378.154 269.287 370.757C259.927 365.097 249.619 360.404 238.928 358.066C248.687 361.007 257.908 366.437 266.5 372.128C271.492 375.831 277.089 381.054 282.577 386.422C272.738 379.126 263.084 371.875 250.727 365.159C261.782 372.191 271.564 381.409 281.983 389.73C273.957 384.521 266.07 379.15 258.729 373.448C267.746 381.792 277.379 389.527 287.7 396.257C291.603 398.809 295.626 401.172 299.719 403.453C299.99 403.642 300.342 403.704 300.682 403.616C302.951 402.362 300.039 401.058 298.865 400.352L298.819 400.341Z" fill="#252525" fill-opacity="0.45"/>
<path d="M250.876 408.036C248.939 408.343 247.094 408.673 245.353 408.979C244.897 408.744 244.314 408.625 243.737 408.581C243.667 408.466 243.615 408.379 243.545 408.264C240.05 406.84 236.017 406.607 232.35 405.484C223.199 403.157 214.137 400.265 204.775 398.696C191.026 396.242 176.894 396.535 163.103 398.627C176.252 397.748 188.466 398.379 200.941 400.936C208.134 402.364 215.196 404.421 222.253 406.403C207.32 403.878 192.447 400.021 176.534 400.684C193.564 401.153 210.393 408.113 227.402 410.757C216.188 410.543 205.371 408.713 193.978 405.541C212.568 413.008 233.666 416.953 253.153 410.825C255.009 408.759 252.512 407.361 250.876 408.036Z" fill="#252525" fill-opacity="0.45"/>
<path d="M321.393 245.363C321.859 257.7 322.313 270.28 327.402 281.747C329.143 286.119 331.102 290.398 333.338 294.549C333.646 295.188 334.029 295.821 334.78 295.957C337.013 296.335 337.495 293.882 336.318 292.392C331.938 283.72 328.14 276.858 325.512 267.834C323.403 260.383 322.597 252.812 321.422 245.346L321.393 245.363Z" fill="#252525" fill-opacity="0.45"/>
<path d="M320.516 255.288C318.715 267.778 320.585 285.555 329.3 293.139C330.38 293.429 331.559 292.519 331.497 291.377C331.441 290.31 330.475 289.558 329.964 288.648C323.134 278.982 320.606 267.46 320.516 255.288Z" fill="#252525" fill-opacity="0.45"/>
<path d="M318.366 201.043C319.983 198.453 321.624 195.966 323.381 193.803C328.943 186.035 335.829 179.158 340.494 170.753C333.567 180.487 323.816 187.958 316.686 197.617C313.011 202.199 309.005 209.614 307.624 213.634C307.585 213.894 307.62 214.147 307.667 214.355C307.437 214.69 307.225 215.054 306.997 215.782C306.67 217.71 309.534 218.611 310.405 216.866C313.918 212.146 320.809 203.457 325.997 197.802C335.653 188.03 344.619 175.688 344.187 161.326C342.655 178.095 329.64 188.877 318.348 201.014L318.366 201.043Z" fill="#252525" fill-opacity="0.45"/>
<path d="M312.103 131.163C314.336 121.792 316.57 112.422 319.293 103.148C313.707 116.787 308.133 130.773 305.162 145.228C305.562 147.188 307.667 147.094 308.493 145.73C308.81 145.734 309.138 145.693 309.426 145.519C312.709 140.938 314.072 135.003 316.032 129.729C319.392 119.363 322.025 108.768 323.324 97.9185C320.242 110.24 316.592 120.388 312.103 131.163Z" fill="#252525" fill-opacity="0.45"/>
</g>
<defs>
<clipPath id="clip0_34_561">
<rect width="332.22" height="469.051" fill="white" transform="translate(0 171.952) rotate(-31.1703)"/>
</clipPath>
</defs>
</svg>
