<svg width="111" height="30" viewBox="0 0 111 30" fill="none" xmlns="http://www.w3.org/2000/svg">
<g clip-path="url(#clip0_34_457)">
<path d="M55.7501 14.17C58.6801 15.21 61.4201 17.08 63.1901 19.61C64.7001 21.65 66.0201 24.74 66.8901 26.49C66.9801 26.59 67.0301 26.65 67.0201 26.67C67.0801 26.72 67.1401 26.78 67.1701 26.85C67.3701 27.11 67.1101 27.5 66.7801 27.4C66.1901 27.11 65.7301 26.78 65.0301 26.4C60.8001 23.94 56.8801 20.49 55.3701 15.78C55.3101 15.5 55.0701 15.16 55.1101 14.87C54.9501 14.49 55.3301 14.04 55.7501 14.17ZM57.5601 18.52C59.2701 21.37 61.7701 23.4 64.6301 25.19C65.0801 25.46 65.5501 25.75 65.9801 26.02C65.7401 25.62 65.5001 25.22 65.2701 24.81C63.7401 22.16 62.5401 19.59 60.2401 17.77C59.6201 17.21 57.4601 15.88 56.7801 15.64C56.6101 15.55 56.4001 15.48 56.1701 15.41C56.1901 15.48 56.2101 15.55 56.2401 15.61C56.6401 16.72 56.9401 17.41 57.5701 18.51L57.5601 18.52Z" fill="#333333"/>
<path d="M55.13 14.17C52.2 15.21 49.46 17.08 47.69 19.61C46.18 21.65 44.86 24.74 43.99 26.49C43.9 26.59 43.85 26.65 43.86 26.67C43.8 26.72 43.74 26.78 43.71 26.85C43.51 27.11 43.77 27.5 44.1 27.4C44.69 27.11 45.15 26.78 45.85 26.4C50.08 23.94 54 20.49 55.51 15.78C55.57 15.5 55.81 15.16 55.77 14.87C55.93 14.49 55.55 14.04 55.13 14.17ZM53.32 18.52C51.61 21.37 49.11 23.4 46.25 25.19C45.8 25.46 45.33 25.75 44.9 26.02C45.14 25.62 45.38 25.22 45.61 24.81C47.14 22.16 48.34 19.59 50.64 17.77C51.26 17.21 53.42 15.88 54.1 15.64C54.27 15.55 54.48 15.48 54.71 15.41C54.69 15.48 54.67 15.55 54.64 15.61C54.24 16.72 53.94 17.41 53.31 18.51L53.32 18.52Z" fill="#333333"/>
<path d="M54.7199 20.24C55.0399 19.67 55.0899 19.26 55.5099 19.26C55.5099 19.26 55.5199 19.26 55.5299 19.26C55.6799 19.12 55.9599 19.13 56.0699 19.33C57.0599 21.28 57.5999 23.39 56.9799 25.79C56.6699 27.08 56.0099 28.64 55.4099 29.6C55.1799 29.74 54.9299 29.55 54.8899 29.31C54.5599 28.08 54.2399 26.84 54.0299 25.59C53.6199 23.77 53.8799 21.89 54.7299 20.23L54.7199 20.24ZM54.7799 26.36C54.9199 27.12 55.0999 27.86 55.3099 28.61C55.7699 27.72 56.1199 26.93 56.3999 25.89C56.6899 24.79 56.7799 23.48 56.6199 22.49C56.4599 21.66 56.2599 21.26 55.8799 20.48C55.8199 20.33 55.7299 20.18 55.6399 20.03C55.6199 20.07 55.5999 20.11 55.5799 20.14C55.2099 20.82 55.0099 21.21 54.8099 21.85C54.3199 23.39 54.5299 24.83 54.7999 26.36H54.7799Z" fill="#333333"/>
<path d="M55.7501 15.4901C58.6801 14.4501 61.4201 12.5801 63.1901 10.0501C64.7001 8.01006 66.0201 4.92006 66.8901 3.17006C66.9801 3.07006 67.0301 3.01006 67.0201 2.99006C67.0801 2.94006 67.1401 2.88006 67.1701 2.81006C67.3701 2.55006 67.1101 2.16006 66.7801 2.26006C66.1901 2.55006 65.7301 2.88006 65.0301 3.26006C60.8001 5.72006 56.8801 9.17006 55.3701 13.8801C55.3101 14.1601 55.0701 14.5001 55.1101 14.7901C54.9501 15.1701 55.3301 15.6201 55.7501 15.4901ZM57.5601 11.1401C59.2701 8.29006 61.7701 6.26006 64.6301 4.47006C65.0801 4.20006 65.5501 3.91006 65.9801 3.64006C65.7401 4.04006 65.5001 4.44006 65.2701 4.85006C63.7401 7.50006 62.5401 10.0801 60.2401 11.8901C59.6201 12.4501 57.4601 13.7801 56.7801 14.0201C56.6101 14.1101 56.4001 14.1801 56.1701 14.2501C56.1901 14.1801 56.2101 14.1101 56.2401 14.0501C56.6401 12.9401 56.9401 12.2501 57.5701 11.1501L57.5601 11.1401Z" fill="#333333"/>
<path d="M55.13 15.4901C52.2 14.4501 49.46 12.5801 47.69 10.0501C46.18 8.01006 44.86 4.92006 43.99 3.17006C43.9 3.07006 43.85 3.01006 43.86 2.99006C43.8 2.94006 43.74 2.88006 43.71 2.81006C43.51 2.55006 43.77 2.16006 44.1 2.26006C44.69 2.55006 45.15 2.88006 45.85 3.26006C50.08 5.72006 54 9.17006 55.51 13.8801C55.57 14.1601 55.81 14.5001 55.77 14.7901C55.93 15.1701 55.55 15.6201 55.13 15.4901ZM53.32 11.1401C51.61 8.29006 49.11 6.26006 46.25 4.47006C45.8 4.20006 45.33 3.91006 44.9 3.64006C45.14 4.04006 45.38 4.44006 45.61 4.85006C47.14 7.50006 48.34 10.0801 50.64 11.8901C51.26 12.4501 53.42 13.7801 54.1 14.0201C54.27 14.1101 54.48 14.1801 54.71 14.2501C54.69 14.1801 54.67 14.1101 54.64 14.0501C54.24 12.9401 53.94 12.2501 53.31 11.1501L53.32 11.1401Z" fill="#333333"/>
<path d="M54.7199 9.41999C55.0399 9.98999 55.0899 10.4 55.5099 10.4C55.5099 10.4 55.5199 10.4 55.5299 10.4C55.6799 10.54 55.9599 10.53 56.0699 10.33C57.0599 8.37999 57.5999 6.26999 56.9799 3.86999C56.6699 2.57999 56.0099 1.01999 55.4099 0.0599905C55.1799 -0.0800095 54.9299 0.109991 54.8899 0.349991C54.5599 1.57999 54.2399 2.81999 54.0299 4.06999C53.6199 5.88999 53.8799 7.76999 54.7299 9.42999L54.7199 9.41999ZM54.7799 3.29999C54.9199 2.53999 55.0999 1.79999 55.3099 1.04999C55.7699 1.93999 56.1199 2.72999 56.3999 3.76999C56.6899 4.86999 56.7799 6.17999 56.6199 7.16999C56.4599 7.99999 56.2599 8.39999 55.8799 9.17999C55.8199 9.32999 55.7299 9.47999 55.6399 9.62999C55.6199 9.58999 55.5999 9.54999 55.5799 9.51999C55.2099 8.83999 55.0099 8.44999 54.8099 7.80999C54.3199 6.26999 54.5299 4.82999 54.7999 3.29999H54.7799Z" fill="#333333"/>
<path d="M62.1101 14.04C65.0701 13.59 67.9101 13.75 70.7301 14.4C71.1801 14.36 71.5701 14.28 71.8401 14.22C73.1501 13.95 73.8801 13.78 74.8401 13.12C77.0301 11.38 79.6501 10.32 82.7501 10.47C84.6301 10.52 87.1901 10.93 88.6001 11.17C88.6401 11.17 89.0001 11.18 89.0301 11.41C89.0601 11.68 88.9201 11.76 88.7501 11.8C88.6701 11.82 88.6001 11.83 88.5301 11.84C87.7101 12.06 86.9201 12.39 86.1301 12.7C84.9001 13.1 83.3601 14.55 81.9601 15.22C80.3601 16.02 78.5601 16.41 76.7701 16.42C76.6601 16.42 76.5301 16.41 76.4001 16.4C78.6401 17.47 80.7501 18.6 83.2001 18.4C88.6401 17.9 93.3901 13.12 98.7701 10.81C102 9.55998 106.77 10.1 108.91 12C109.6 12.59 110.67 13.46 110.87 14.34C110.87 14.57 110.77 14.76 110.62 14.89C110.51 15.17 110.15 15.35 109.87 15.17C108.95 14.63 108.15 14.25 107.53 14.21C105 14.14 102.94 15.4 100.43 16.51C98.1401 17.49 95.6301 17.76 93.1701 17.53C92.1301 17.43 91.1101 17.26 90.0901 17.07C90.0501 17.06 90.0201 17.04 89.9801 17.01C87.0801 18.57 83.6801 19.66 80.4601 18.9C80.5101 18.96 80.5601 19 80.6101 19.07C81.4301 20 82.0701 21.67 82.6801 22.34C83.1201 22.86 84.0101 23.57 84.2101 23.71C84.4401 23.89 84.7901 24.03 84.8201 24.35C84.6901 25.02 84.0601 24.75 83.2501 24.74C81.5401 24.63 80.0801 24.28 78.3901 23.32C77.1401 22.59 76.4301 21.25 76.1701 19.86C75.7501 18.48 75.4501 17.63 74.4001 16.7C74.1401 16.5 73.8501 16.33 73.5701 16.18C73.3801 16.04 73.2001 16 73.0801 15.9C71.3901 15.3 69.6801 14.88 67.9001 14.83C66.4501 14.75 64.9901 14.78 63.5401 14.81C63.0801 14.76 62.5201 14.98 62.1301 14.69C61.9501 14.51 61.9501 14.19 62.1301 14.01L62.1101 14.04ZM92.7101 16.55C95.5201 16.9 98.4401 16.55 100.63 15.57C101.66 15.16 103.26 14.25 104.62 13.79C105.74 13.47 106.45 13.37 107.42 13.27C107.72 13.25 108.02 13.3 108.31 13.37C106.8 12 104.44 11.2 101.7 11.44C98.3201 11.57 94.7301 14.28 91.2301 16.34C91.7901 16.44 92.2901 16.51 92.7101 16.56V16.55ZM81.8601 14.58C82.8701 14.07 83.7201 13.3 84.7001 12.74C85.4601 12.32 86.2701 12 87.0901 11.72C85.0601 11.56 82.5201 11.31 81.0601 11.48C79.3401 11.8 78.3301 12.2 76.9201 13.04C76.1201 13.53 75.4101 14.17 74.5501 14.55C74.0501 14.79 73.4201 14.95 73.0301 15.04C73.5701 15.22 74.1101 15.41 74.6501 15.63C74.6501 15.63 74.6601 15.63 74.6701 15.63C77.0901 16.18 79.6901 15.63 81.8601 14.57V14.58ZM76.8801 18.86C77.3001 19.95 77.3101 20.68 77.8701 21.48C78.6301 22.85 81.4501 23.56 83.3701 23.88C82.6701 23.38 82.0101 22.82 81.5201 22.1C80.8601 21.12 80.4101 20.01 79.7701 19.37C79.2301 18.82 79.0401 18.57 78.5401 18.24C77.6401 17.84 76.7401 17.43 75.8501 17.04C76.2901 17.58 76.6401 18.21 76.8801 18.86Z" fill="#333333"/>
<path d="M48.77 14.04C45.81 13.59 42.97 13.75 40.15 14.4C39.7 14.36 39.31 14.28 39.04 14.22C37.73 13.95 37 13.78 36.04 13.12C33.85 11.38 31.23 10.32 28.13 10.47C26.25 10.52 23.69 10.93 22.28 11.17C22.24 11.17 21.88 11.18 21.85 11.41C21.82 11.68 21.96 11.76 22.13 11.8C22.21 11.82 22.28 11.83 22.35 11.84C23.17 12.06 23.96 12.39 24.75 12.7C25.98 13.1 27.52 14.55 28.92 15.22C30.52 16.02 32.32 16.41 34.11 16.42C34.22 16.42 34.35 16.41 34.48 16.4C32.24 17.47 30.13 18.6 27.68 18.4C22.24 17.9 17.49 13.12 12.11 10.81C8.88 9.55998 4.11 10.1 1.97 12C1.28 12.61 0.2 13.48 0 14.36C0 14.59 0.1 14.78 0.25 14.91C0.36 15.19 0.72 15.37 1 15.19C1.92 14.65 2.72 14.27 3.34 14.23C5.87 14.16 7.93 15.42 10.44 16.53C12.73 17.51 15.24 17.78 17.7 17.55C18.74 17.45 19.76 17.28 20.78 17.09C20.82 17.08 20.85 17.06 20.89 17.03C23.79 18.59 27.19 19.68 30.41 18.92C30.36 18.98 30.31 19.02 30.26 19.09C29.44 20.02 28.8 21.69 28.19 22.36C27.75 22.88 26.86 23.59 26.66 23.73C26.43 23.91 26.08 24.05 26.05 24.37C26.18 25.04 26.81 24.77 27.62 24.76C29.33 24.65 30.79 24.3 32.48 23.34C33.73 22.61 34.44 21.27 34.7 19.88C35.12 18.5 35.42 17.65 36.47 16.72C36.73 16.52 37.02 16.35 37.3 16.2C37.49 16.06 37.67 16.02 37.79 15.92C39.48 15.32 41.19 14.9 42.97 14.85C44.42 14.77 45.88 14.8 47.33 14.83C47.79 14.78 48.35 15 48.74 14.71C48.92 14.53 48.92 14.21 48.74 14.03L48.77 14.04ZM18.17 16.55C15.36 16.9 12.44 16.55 10.25 15.57C9.22 15.16 7.62 14.25 6.26 13.79C5.14 13.47 4.43 13.37 3.46 13.27C3.16 13.25 2.86 13.3 2.57 13.37C4.08 12 6.44 11.2 9.18 11.44C12.56 11.57 16.15 14.28 19.65 16.34C19.09 16.44 18.59 16.51 18.17 16.56V16.55ZM29.02 14.58C28.01 14.07 27.16 13.3 26.18 12.74C25.42 12.32 24.61 12 23.79 11.72C25.82 11.56 28.36 11.31 29.82 11.48C31.54 11.8 32.55 12.2 33.96 13.04C34.76 13.53 35.47 14.17 36.33 14.55C36.83 14.79 37.46 14.95 37.85 15.04C37.31 15.22 36.77 15.41 36.23 15.63C36.23 15.63 36.22 15.63 36.21 15.63C33.79 16.18 31.19 15.63 29.02 14.57V14.58ZM34 18.86C33.58 19.95 33.57 20.68 33.01 21.48C32.25 22.85 29.43 23.56 27.51 23.88C28.21 23.38 28.87 22.82 29.36 22.1C30.02 21.12 30.47 20.01 31.11 19.37C31.65 18.82 31.84 18.57 32.34 18.24C33.24 17.84 34.14 17.43 35.03 17.04C34.59 17.58 34.24 18.21 34 18.86Z" fill="#333333"/>
<path d="M18.73 15.52C18.8 15.55 18.8 15.55 18.73 15.52V15.52Z" fill="#333333"/>
<path d="M3.43016 13.05C7.39016 11.84 11.4902 12.96 15.2402 14.38C12.5502 12.88 9.78016 11.64 6.65016 11.96C9.03016 11.44 11.4402 12.09 13.6502 12.98C15.8502 13.88 17.6402 14.61 19.5702 15.77C19.7902 16.02 19.6402 16.45 19.3202 16.53C19.1702 16.57 19.0402 16.53 18.9102 16.46C18.8802 16.48 18.8602 16.51 18.8302 16.53C18.7302 16.57 18.6502 16.59 18.5602 16.6C18.3202 16.89 17.7602 16.76 17.2502 16.79C17.0002 16.77 16.7602 16.71 16.5102 16.67C16.0302 16.89 14.7302 16.63 14.4102 16.63C12.5002 16.38 10.8302 15.35 9.13016 14.52C10.7102 15.1 12.2902 15.76 13.9702 15.96H13.9902C11.7002 15.06 9.61016 13.74 7.13016 13.43C10.0202 13.49 12.6402 15 15.4202 15.66C11.6002 14.14 8.25016 12.05 3.41016 13.05H3.43016Z" fill="#333333"/>
<path d="M34.3198 18.91C34.3198 18.91 34.3198 18.9 34.3198 18.89C34.3198 18.88 34.3298 18.87 34.3398 18.86C34.3298 18.9 34.3198 18.9 34.3198 18.91Z" fill="#333333"/>
<path d="M29.7498 23.0101C31.4498 22.0201 32.0598 20.0801 33.2798 18.7401C32.9598 19.0001 32.6498 19.29 32.2598 19.71C31.1498 20.89 30.3398 22.72 28.5098 23.39C29.4598 22.88 29.9898 22.1101 30.4698 21.1801C31.1498 19.9301 31.9598 18.7 33.0898 17.81C33.5198 17.56 34.3298 16.61 34.7598 17.23C34.8198 17.34 34.8298 17.4301 34.8098 17.5101C35.0298 17.6201 35.1298 17.94 34.9298 18.13C34.7398 18.34 34.5398 18.5401 34.3398 18.7401C34.3398 18.7901 34.3398 18.8401 34.3198 18.9001C33.6698 20.3001 32.6998 21.5901 31.3998 22.4501C32.1598 21.7301 32.6998 20.8201 33.1898 19.89C32.8998 20.19 32.6098 20.5001 32.3498 20.8301C31.6598 21.7601 30.8198 22.5801 29.7398 23.0201L29.7498 23.0101Z" fill="#333333"/>
<path d="M34.26 15.1599C31.26 14.3599 28.78 12.5799 25.71 12.0999C28.48 12.2699 31.05 13.5199 33.75 14.0999C34.28 14.2599 34.9 14.3499 35.5 14.4099C33.04 13.2499 30.37 12.5799 27.36 11.8199C29.44 12.1499 31.6 12.2299 33.65 12.8399C34.67 13.1299 36.35 13.7399 36.91 14.1799C37.05 14.2999 37.11 14.4199 37.12 14.5299C37.39 14.5499 37.6 14.5799 37.73 14.6299C38.02 14.7299 38.1 15.1499 37.88 15.3599C37.65 15.5499 37.11 15.5699 36.48 15.5199C36.77 16.2799 35.17 15.8899 34.74 15.9299C32.35 15.7399 30.17 14.5299 28.15 13.2999C29.91 14.0899 31.81 14.7499 33.73 15.0899C33.85 15.1199 34.04 15.1399 34.27 15.1599H34.26Z" fill="#333333"/>
<path d="M76.1199 18.17C76.1199 18.17 76.1399 18.2 76.1499 18.21C76.1499 18.21 76.1499 18.21 76.1499 18.22C76.1499 18.22 76.1299 18.19 76.1099 18.17H76.1199Z" fill="#333333"/>
<path d="M76.1898 16.65C76.4998 16.87 76.7898 17.11 77.0698 17.37C77.1698 16.74 78.6298 18.44 78.8698 18.6C79.5698 19.3 80.1398 20.12 80.5198 21.04C79.9198 19.91 78.9498 19.08 77.9598 18.25C78.2898 18.6 78.6098 18.97 78.9198 19.33C79.9898 20.51 80.4798 22.09 81.7298 23.04C80.4598 22.32 79.8898 21.05 78.9398 20.09C78.4298 19.51 77.7598 18.93 77.1498 18.43C78.2798 19.74 79.4598 21.01 80.3398 22.51C79.0998 20.93 77.3998 19.79 76.1598 18.2C76.0098 18.04 76.0898 17.81 76.2598 17.72C76.0698 17.57 75.8998 17.43 75.7898 17.34C75.3298 17.08 75.7498 16.37 76.1998 16.64L76.1898 16.65Z" fill="#333333"/>
<path d="M76.02 18.29C76.32 18.26 76.29 18.41 76.42 18.54C77.2 19.56 78.07 20.91 79.23 21.97C78.06 21.25 77.09 20.27 76.24 19.2C76.07 18.95 75.54 18.5 76.02 18.29Z" fill="#333333"/>
<path d="M73.2401 14.7099C73.2601 14.6599 73.2901 14.6099 73.3301 14.5699C73.6201 14.4499 73.9101 14.3599 74.2101 14.2599C74.1701 14.1899 74.1601 14.1099 74.2101 14.0299C75.9301 12.9799 78.0101 12.5999 79.9601 12.1299C78.4101 12.7499 76.9801 13.2399 75.5701 13.8899C76.4701 13.6799 77.3901 13.5099 78.2601 13.2399C79.7801 12.8599 81.2301 12.2099 82.7901 12.0099C80.5701 12.7099 78.4701 13.8399 76.1801 14.5099C77.6301 14.3499 79.0001 14.1299 80.5801 13.4899C82.0101 12.9799 83.7101 11.8099 85.5601 12.0099C83.4601 11.9799 81.1701 14.2699 79.5101 14.7599C78.6801 15.0999 77.8101 15.3299 76.9201 15.4899C78.2501 15.3699 79.5601 14.9899 80.7601 14.4599C81.3601 14.1799 82.0301 13.9599 82.5101 13.4899C81.8301 14.2499 80.8301 14.6499 79.9301 15.0999C78.4001 15.7899 76.5801 16.3399 74.9201 15.9899C74.8501 15.9199 74.8301 15.8199 74.8501 15.7299C74.5401 15.7499 74.2301 15.7699 73.9301 15.7699C73.5601 15.7899 73.3501 15.4499 73.3901 15.1399C73.3801 15.1399 73.3701 15.1199 73.3601 15.1099C73.1401 15.1299 72.9201 15.1499 72.7101 15.1499C72.6601 15.1599 72.6101 15.1599 72.5901 15.1499C72.5301 15.1499 72.4701 15.1499 72.4101 15.1499C72.1501 14.8399 72.8301 14.7599 73.2601 14.6999L73.2401 14.7099Z" fill="#333333"/>
<path d="M91.5702 15.79C91.9002 15.72 92.2302 15.64 92.5502 15.56C92.5302 15.53 92.5102 15.49 92.5002 15.45C92.3802 15.04 92.7802 14.83 93.1002 14.69C93.4802 14.5 93.8702 14.32 94.2502 14.13C97.1602 12.69 100.45 11.72 103.73 12.17C100.3 12.1 97.4002 13.46 94.4902 15.08C96.8102 14.45 99.0902 13.7 101.41 13.1C103.23 12.69 105.22 12.24 107.03 12.87C105.87 12.54 104.77 12.79 103.63 13.01C100.77 13.69 98.1402 15.05 95.3602 15.97C96.3202 15.84 97.2702 15.67 98.3602 15.35C99.9202 14.93 101.4 14.24 102.99 13.91C101.01 14.62 99.1702 15.77 97.1102 16.38C95.8902 16.79 94.6102 16.97 93.3302 17.03C93.2002 17.05 93.0702 17 92.9802 16.91C92.9102 16.84 92.8702 16.75 92.8702 16.65C92.2802 16.78 91.7002 16.89 91.4802 16.87C90.8102 16.77 90.9102 15.83 91.5702 15.79Z" fill="#333333"/>
<path d="M62.9298 23.29C60.9398 20.97 59.0398 18.55 57.0498 16.23C59.2398 18.4 61.5098 20.5 63.6298 22.74C62.3198 20.97 60.8198 19.09 58.8598 17.41C60.9998 18.87 62.9798 20.63 64.5398 22.7C64.7298 23.04 65.1398 23.35 65.1098 23.76C65.0098 23.95 64.9098 24.03 64.7998 24.03C65.1698 24.44 65.5498 24.85 65.8998 25.27C66.1698 25.46 66.3198 26.26 65.5198 26.19C65.1798 25.84 64.8598 25.47 64.5398 25.11C64.5198 25.11 64.5098 25.12 64.4898 25.11C64.3198 25.07 64.1598 25.01 63.9998 24.94C63.8598 25.02 63.6898 25.02 63.5498 24.88C63.6098 24.92 63.6598 24.96 63.6198 24.94C63.3298 24.73 63.3498 24.74 63.0398 24.49C60.9198 22.79 59.4298 20.46 57.9198 18.23C59.4398 20.06 61.1298 21.73 62.9298 23.29Z" fill="#333333"/>
<path d="M57.2002 13.14C58.9702 10.97 60.6702 8.73001 62.4702 6.58001C61.0002 7.85001 59.6002 9.21 58.3902 10.74C59.6002 8.8 61.0302 6.97001 62.7402 5.44001C63.2802 5.02001 63.8402 4.38001 64.2802 4.26001C64.3502 4.26001 64.4102 4.28001 64.4702 4.32001C64.7702 4.00001 65.0602 3.66001 65.3702 3.34001C65.4302 3.29001 65.4602 3.27001 65.4802 3.26001C65.4602 3.26001 65.5102 3.23001 65.5802 3.19001C65.5802 3.17001 65.7002 3.12001 65.8302 3.12001C66.2502 3.11001 66.4802 3.67001 66.1802 3.95001C65.8902 4.25001 65.5802 4.57001 65.2602 4.89001C65.1402 5.11001 65.0202 5.32001 64.9102 5.54001C64.8802 5.64001 64.8302 5.74001 64.7802 5.85001C64.8102 5.88001 64.8502 5.91001 64.8602 5.95001C64.8202 6.56001 64.1602 7.26001 63.8202 7.78001C62.4702 9.34001 60.8102 10.61 59.1702 11.86C61.1302 9.95001 62.5402 8.31001 63.9402 6.24001C61.7702 8.45001 59.2902 10.95 57.2202 13.13L57.2002 13.14Z" fill="#333333"/>
<path d="M45.4601 3.73005C45.6901 3.96005 45.9001 4.19005 46.1301 4.42005C46.0501 4.14005 46.4401 3.83005 46.6901 4.13005C49.0601 6.09005 50.9101 8.56005 52.7501 11C50.7601 8.89005 48.7701 6.76005 46.5601 4.87005C49.1301 7.53005 51.5301 10.34 53.8201 13.25C51.7201 11.03 49.5901 8.84005 47.4101 6.70005C48.6001 8.26005 49.7401 9.73005 51.2901 11.36C50.0601 10.3 48.9001 9.15005 47.8201 7.94005C49.0101 9.73005 50.4801 11.27 52.3301 12.51C49.2901 10.87 46.6401 8.14005 45.4701 4.90005C45.4701 4.89005 45.4801 4.88005 45.4901 4.87005C45.2601 4.65005 45.0401 4.43005 44.8001 4.22005C44.5501 3.94005 45.0001 3.31005 45.4501 3.74005L45.4601 3.73005Z" fill="#333333"/>
<path d="M44.75 25.31C45.23 24.7 45.76 24.13 46.29 23.58C46.17 23.48 46.11 23.3 46.26 23.12C47.59 21.08 49.72 19.35 51.69 17.69C50.23 19.2 48.82 20.64 47.62 22.27C49.76 20.27 52.08 18.44 53.9 16.13C52.01 18.97 49.47 21.29 47.33 23.93C47.33 23.93 47.31 23.95 47.31 23.96C47.91 23.53 48.17 23.3 48.96 22.62C50.15 21.54 51.43 20.5 52.38 19.19C51.19 21.15 49.6 22.9 47.87 24.41C47.44 24.72 47.01 25.09 46.52 25.29C46.41 25.31 46.31 25.26 46.24 25.19C45.98 25.48 45.72 25.78 45.45 26.06C45.35 26.16 45.22 26.22 45.08 26.22C44.37 26.17 44.59 25.36 44.75 25.31Z" fill="#333333"/>
<path d="M55.0799 20.4399C55.1799 20.3799 55.2499 20.3599 55.2999 20.3799C55.2999 20.3099 55.2999 20.2399 55.2999 20.1699C55.6299 19.6699 56.0799 20.0599 55.9899 20.5899C56.1399 20.5599 56.3199 20.6899 56.2899 20.8199C56.4799 22.3999 56.4399 24.0299 56.0099 25.5599C56.1999 24.2599 56.0999 22.9499 55.9399 21.6499C55.8399 23.5999 55.6999 25.5499 55.3999 27.4799C55.4899 25.4499 55.2799 23.4099 55.2899 21.3899C55.2299 21.6399 55.1699 21.8699 55.1699 21.9699C55.0099 22.8999 54.9299 23.8199 54.8999 24.8399C54.7099 23.3899 54.7099 21.8599 55.0799 20.4399Z" fill="#333333"/>
<path d="M54.9801 3.84001C55.0201 5.17001 55.0601 6.36001 55.2301 7.56001C55.3101 5.71001 55.4301 3.86001 55.2501 2.01001C55.5701 3.74001 55.7601 5.53001 55.8301 7.30001C55.9901 5.96001 55.9801 4.57001 55.8101 3.15001C56.2501 4.96001 56.5201 6.89001 56.2501 8.74001C56.1701 9.04001 56.1901 9.44001 55.9401 9.65001C55.6901 9.75001 55.5701 9.65001 55.5201 9.48001C55.4701 9.55001 55.3901 9.61001 55.2901 9.61001C55.1001 9.61001 55.0201 9.43001 54.9801 9.27001C54.8601 8.85001 54.7801 8.41001 54.7201 7.98001C54.5401 6.60001 54.8401 5.22001 54.9701 3.85001L54.9801 3.84001Z" fill="#333333"/>
</g>
<defs>
<clipPath id="clip0_34_457">
<rect width="110.88" height="29.66" fill="white"/>
</clipPath>
</defs>
</svg>
